<svg width="153" height="86" viewBox="0 0 153 86" fill="none" xmlns="http://www.w3.org/2000/svg">
<mask id="path-1-outside-1_389_1851" maskUnits="userSpaceOnUse" x="1" y="9" width="24" height="24" fill="black">
<rect fill="white" x="1" y="9" width="24" height="24"/>
<path d="M2.09473 12.3857C2.09473 12.0049 2.23145 11.6777 2.50488 11.4043C2.77832 11.1309 3.10547 10.9941 3.48633 10.9941H15.3955C18.3154 10.9941 20.4688 11.834 21.8555 13.5137C22.627 14.4414 23.0127 15.6279 23.0127 17.0732C23.0127 18.5088 22.3535 19.7637 21.0352 20.8379C22.9102 21.8438 23.8477 23.4062 23.8477 25.5254C23.8477 27.6445 23.0957 29.2559 21.5918 30.3594C20.0977 31.4531 18.2617 32 16.084 32H3.48633C3.10547 32 2.77832 31.8682 2.50488 31.6045C2.23145 31.3311 2.09473 31.0039 2.09473 30.623V12.3857ZM7.61719 28.0449H15.9961C16.748 28.0449 17.3242 27.8203 17.7246 27.3711C18.125 26.9219 18.3252 26.3066 18.3252 25.5254C18.3252 24.7441 18.125 24.1289 17.7246 23.6797C17.3242 23.2305 16.748 23.0059 15.9961 23.0059H7.61719V28.0449ZM7.61719 19.1533H15.4541C16.0693 19.1533 16.5625 18.9727 16.9336 18.6113C17.3047 18.2402 17.4902 17.7275 17.4902 17.0732C17.4902 16.4092 17.3047 15.8916 16.9336 15.5205C16.5625 15.1494 16.0693 14.9639 15.4541 14.9639H7.61719V19.1533Z"/>
</mask>
<path d="M2.09473 12.3857C2.09473 12.0049 2.23145 11.6777 2.50488 11.4043C2.77832 11.1309 3.10547 10.9941 3.48633 10.9941H15.3955C18.3154 10.9941 20.4688 11.834 21.8555 13.5137C22.627 14.4414 23.0127 15.6279 23.0127 17.0732C23.0127 18.5088 22.3535 19.7637 21.0352 20.8379C22.9102 21.8438 23.8477 23.4062 23.8477 25.5254C23.8477 27.6445 23.0957 29.2559 21.5918 30.3594C20.0977 31.4531 18.2617 32 16.084 32H3.48633C3.10547 32 2.77832 31.8682 2.50488 31.6045C2.23145 31.3311 2.09473 31.0039 2.09473 30.623V12.3857ZM7.61719 28.0449H15.9961C16.748 28.0449 17.3242 27.8203 17.7246 27.3711C18.125 26.9219 18.3252 26.3066 18.3252 25.5254C18.3252 24.7441 18.125 24.1289 17.7246 23.6797C17.3242 23.2305 16.748 23.0059 15.9961 23.0059H7.61719V28.0449ZM7.61719 19.1533H15.4541C16.0693 19.1533 16.5625 18.9727 16.9336 18.6113C17.3047 18.2402 17.4902 17.7275 17.4902 17.0732C17.4902 16.4092 17.3047 15.8916 16.9336 15.5205C16.5625 15.1494 16.0693 14.9639 15.4541 14.9639H7.61719V19.1533Z" fill="#BDFF2E"/>
<path d="M21.8555 13.5137L21.0843 14.1503L21.0866 14.1531L21.8555 13.5137ZM21.0352 20.8379L20.4035 20.0627L19.2407 21.0101L20.5624 21.7191L21.0352 20.8379ZM21.5918 30.3594L22.1825 31.1663L22.1834 31.1656L21.5918 30.3594ZM2.50488 31.6045L1.79778 32.3116L1.8042 32.318L1.81075 32.3243L2.50488 31.6045ZM7.61719 28.0449H6.61719V29.0449H7.61719V28.0449ZM17.7246 23.6797L16.9781 24.3451L17.7246 23.6797ZM7.61719 23.0059V22.0059H6.61719V23.0059H7.61719ZM7.61719 19.1533H6.61719V20.1533H7.61719V19.1533ZM16.9336 18.6113L17.6313 19.3279L17.6407 19.3184L16.9336 18.6113ZM7.61719 14.9639V13.9639H6.61719V14.9639H7.61719ZM3.09473 12.3857C3.09473 12.2746 3.12286 12.2005 3.21199 12.1114L1.79778 10.6972C1.34003 11.1549 1.09473 11.7351 1.09473 12.3857H3.09473ZM3.21199 12.1114C3.30112 12.0223 3.37522 11.9941 3.48633 11.9941V9.99414C2.83572 9.99414 2.25552 10.2394 1.79778 10.6972L3.21199 12.1114ZM3.48633 11.9941H15.3955V9.99414H3.48633V11.9941ZM15.3955 11.9941C18.1252 11.9941 19.9471 12.7728 21.0843 14.1503L22.6266 12.877C20.9904 10.8951 18.5057 9.99414 15.3955 9.99414V11.9941ZM21.0866 14.1531C21.6806 14.8673 22.0127 15.8133 22.0127 17.0732H24.0127C24.0127 15.4425 23.5733 14.0155 22.6244 12.8743L21.0866 14.1531ZM22.0127 17.0732C22.0127 18.1514 21.5366 19.1394 20.4035 20.0627L21.6668 21.6131C23.1704 20.388 24.0127 18.8662 24.0127 17.0732H22.0127ZM20.5624 21.7191C21.3679 22.1512 21.9257 22.6764 22.287 23.2787C22.6482 23.8807 22.8477 24.6171 22.8477 25.5254H24.8477C24.8477 24.3145 24.5783 23.2102 24.002 22.2497C23.4259 21.2894 22.5774 20.5304 21.5079 19.9567L20.5624 21.7191ZM22.8477 25.5254C22.8477 27.3758 22.2097 28.6656 21.0002 29.5531L22.1834 31.1656C23.9817 29.8461 24.8477 27.9132 24.8477 25.5254H22.8477ZM21.0011 29.5525C19.7071 30.4997 18.0879 31 16.084 31V33C18.4355 33 20.4882 32.4065 22.1825 31.1663L21.0011 29.5525ZM16.084 31H3.48633V33H16.084V31ZM3.48633 31C3.36363 31 3.28552 30.9681 3.19902 30.8846L1.81075 32.3243C2.27112 32.7683 2.84731 33 3.48633 33V31ZM3.21199 30.8974C3.12286 30.8083 3.09473 30.7342 3.09473 30.623H1.09473C1.09473 31.2737 1.34003 31.8539 1.79778 32.3116L3.21199 30.8974ZM3.09473 30.623V12.3857H1.09473V30.623H3.09473ZM7.61719 29.0449H15.9961V27.0449H7.61719V29.0449ZM15.9961 29.0449C16.9566 29.0449 17.8354 28.7497 18.4711 28.0365L16.9781 26.7057C16.8131 26.8909 16.5395 27.0449 15.9961 27.0449V29.0449ZM18.4711 28.0365C19.0786 27.3549 19.3252 26.477 19.3252 25.5254H17.3252C17.3252 26.1363 17.1714 26.4889 16.9781 26.7057L18.4711 28.0365ZM19.3252 25.5254C19.3252 24.5738 19.0786 23.6959 18.4711 23.0143L16.9781 24.3451C17.1714 24.5619 17.3252 24.9145 17.3252 25.5254H19.3252ZM18.4711 23.0143C17.8354 22.301 16.9566 22.0059 15.9961 22.0059V24.0059C16.5395 24.0059 16.8131 24.1599 16.9781 24.3451L18.4711 23.0143ZM15.9961 22.0059H7.61719V24.0059H15.9961V22.0059ZM6.61719 23.0059V28.0449H8.61719V23.0059H6.61719ZM7.61719 20.1533H15.4541V18.1533H7.61719V20.1533ZM15.4541 20.1533C16.2776 20.1533 17.039 19.9044 17.6312 19.3278L16.236 17.8949C16.086 18.0409 15.8611 18.1533 15.4541 18.1533V20.1533ZM17.6407 19.3184C18.2432 18.716 18.4902 17.9236 18.4902 17.0732H16.4902C16.4902 17.5315 16.3662 17.7645 16.2265 17.9042L17.6407 19.3184ZM18.4902 17.0732C18.4902 16.218 18.2459 15.4186 17.6407 14.8134L16.2265 16.2276C16.3635 16.3646 16.4902 16.6004 16.4902 17.0732H18.4902ZM17.6407 14.8134C17.0499 14.2226 16.2853 13.9639 15.4541 13.9639V15.9639C15.8534 15.9639 16.0751 16.0762 16.2265 16.2276L17.6407 14.8134ZM15.4541 13.9639H7.61719V15.9639H15.4541V13.9639ZM6.61719 14.9639V19.1533H8.61719V14.9639H6.61719Z" fill="black" mask="url(#path-1-outside-1_389_1851)"/>
<mask id="path-3-outside-2_389_1851" maskUnits="userSpaceOnUse" x="34" y="9" width="22" height="24" fill="black">
<rect fill="white" x="34" y="9" width="22" height="24"/>
<path d="M35.0947 30.5938V12.3564C35.0947 11.9756 35.2314 11.6533 35.5049 11.3896C35.7783 11.126 36.1055 10.9941 36.4863 10.9941H53.376C53.7568 10.9941 54.0791 11.1309 54.3428 11.4043C54.6162 11.6777 54.7529 12.0049 54.7529 12.3857V13.7627C54.7529 14.1436 54.6162 14.4707 54.3428 14.7441C54.0791 15.0078 53.7568 15.1396 53.376 15.1396H40.6172V19.4023H51.6035C51.9844 19.4023 52.3066 19.5391 52.5703 19.8125C52.8438 20.0762 52.9805 20.3984 52.9805 20.7793V22.1562C52.9805 22.5371 52.8438 22.8643 52.5703 23.1377C52.3066 23.4014 51.9844 23.5332 51.6035 23.5332H40.6172V27.8545H53.3467C53.7178 27.8545 54.0352 27.9863 54.2988 28.25C54.5625 28.5137 54.6943 28.8359 54.6943 29.2168V30.623C54.6943 31.0039 54.5576 31.3311 54.2842 31.6045C54.0107 31.8682 53.6836 32 53.3027 32H36.4863C36.1055 32 35.7783 31.8682 35.5049 31.6045C35.2314 31.3311 35.0947 30.9941 35.0947 30.5938Z"/>
</mask>
<path d="M35.0947 30.5938V12.3564C35.0947 11.9756 35.2314 11.6533 35.5049 11.3896C35.7783 11.126 36.1055 10.9941 36.4863 10.9941H53.376C53.7568 10.9941 54.0791 11.1309 54.3428 11.4043C54.6162 11.6777 54.7529 12.0049 54.7529 12.3857V13.7627C54.7529 14.1436 54.6162 14.4707 54.3428 14.7441C54.0791 15.0078 53.7568 15.1396 53.376 15.1396H40.6172V19.4023H51.6035C51.9844 19.4023 52.3066 19.5391 52.5703 19.8125C52.8438 20.0762 52.9805 20.3984 52.9805 20.7793V22.1562C52.9805 22.5371 52.8438 22.8643 52.5703 23.1377C52.3066 23.4014 51.9844 23.5332 51.6035 23.5332H40.6172V27.8545H53.3467C53.7178 27.8545 54.0352 27.9863 54.2988 28.25C54.5625 28.5137 54.6943 28.8359 54.6943 29.2168V30.623C54.6943 31.0039 54.5576 31.3311 54.2842 31.6045C54.0107 31.8682 53.6836 32 53.3027 32H36.4863C36.1055 32 35.7783 31.8682 35.5049 31.6045C35.2314 31.3311 35.0947 30.9941 35.0947 30.5938Z" fill="#BDFF2E"/>
<path d="M54.3428 11.4043L53.6229 12.0984L53.6292 12.105L53.6357 12.1114L54.3428 11.4043ZM40.6172 15.1396V14.1396H39.6172V15.1396H40.6172ZM40.6172 19.4023H39.6172V20.4023H40.6172V19.4023ZM52.5703 19.8125L51.8505 20.5066L51.8631 20.5197L51.8762 20.5323L52.5703 19.8125ZM40.6172 23.5332V22.5332H39.6172V23.5332H40.6172ZM40.6172 27.8545H39.6172V28.8545H40.6172V27.8545ZM54.2842 31.6045L54.9783 32.3243L54.9849 32.318L54.9913 32.3116L54.2842 31.6045ZM35.5049 31.6045L34.7978 32.3116L34.8042 32.318L34.8107 32.3243L35.5049 31.6045ZM36.0947 30.5938V12.3564H34.0947V30.5938H36.0947ZM36.0947 12.3564C36.0947 12.2463 36.1216 12.1841 36.199 12.1095L34.8107 10.6698C34.3413 11.1225 34.0947 11.7049 34.0947 12.3564H36.0947ZM36.199 12.1095C36.2855 12.0261 36.3636 11.9941 36.4863 11.9941V9.99414C35.8473 9.99414 35.2711 10.2259 34.8107 10.6698L36.199 12.1095ZM36.4863 11.9941H53.376V9.99414H36.4863V11.9941ZM53.376 11.9941C53.4861 11.9941 53.5483 12.021 53.6229 12.0984L55.0626 10.7102C54.6099 10.2407 54.0275 9.99414 53.376 9.99414V11.9941ZM53.6357 12.1114C53.7248 12.2005 53.7529 12.2746 53.7529 12.3857H55.7529C55.7529 11.7351 55.5076 11.1549 55.0499 10.6972L53.6357 12.1114ZM53.7529 12.3857V13.7627H55.7529V12.3857H53.7529ZM53.7529 13.7627C53.7529 13.8738 53.7248 13.9479 53.6357 14.037L55.0499 15.4512C55.5076 14.9935 55.7529 14.4133 55.7529 13.7627H53.7529ZM53.6357 14.037C53.564 14.1087 53.498 14.1396 53.376 14.1396V16.1396C54.0157 16.1396 54.5942 15.9069 55.0499 15.4512L53.6357 14.037ZM53.376 14.1396H40.6172V16.1396H53.376V14.1396ZM39.6172 15.1396V19.4023H41.6172V15.1396H39.6172ZM40.6172 20.4023H51.6035V18.4023H40.6172V20.4023ZM51.6035 20.4023C51.7137 20.4023 51.7758 20.4292 51.8505 20.5066L53.2902 19.1184C52.8374 18.6489 52.2551 18.4023 51.6035 18.4023V20.4023ZM51.8762 20.5323C51.9536 20.607 51.9805 20.6691 51.9805 20.7793H53.9805C53.9805 20.1277 53.7339 19.5454 53.2644 19.0927L51.8762 20.5323ZM51.9805 20.7793V22.1562H53.9805V20.7793H51.9805ZM51.9805 22.1562C51.9805 22.2674 51.9523 22.3415 51.8632 22.4306L53.2774 23.8448C53.7352 23.3871 53.9805 22.8069 53.9805 22.1562H51.9805ZM51.8632 22.4306C51.7915 22.5023 51.7255 22.5332 51.6035 22.5332V24.5332C52.2432 24.5332 52.8218 24.3005 53.2774 23.8448L51.8632 22.4306ZM51.6035 22.5332H40.6172V24.5332H51.6035V22.5332ZM39.6172 23.5332V27.8545H41.6172V23.5332H39.6172ZM40.6172 28.8545H53.3467V26.8545H40.6172V28.8545ZM53.3467 28.8545C53.4511 28.8545 53.5146 28.8799 53.5917 28.9571L55.0059 27.5429C54.5557 27.0927 53.9844 26.8545 53.3467 26.8545V28.8545ZM53.5917 28.9571C53.6634 29.0288 53.6943 29.0948 53.6943 29.2168H55.6943C55.6943 28.5771 55.4616 27.9985 55.0059 27.5429L53.5917 28.9571ZM53.6943 29.2168V30.623H55.6943V29.2168H53.6943ZM53.6943 30.623C53.6943 30.7342 53.6662 30.8083 53.5771 30.8974L54.9913 32.3116C55.449 31.8539 55.6943 31.2737 55.6943 30.623H53.6943ZM53.59 30.8846C53.5035 30.9681 53.4254 31 53.3027 31V33C53.9418 33 54.5179 32.7683 54.9783 32.3243L53.59 30.8846ZM53.3027 31H36.4863V33H53.3027V31ZM36.4863 31C36.3636 31 36.2855 30.9681 36.199 30.8846L34.8107 32.3243C35.2711 32.7683 35.8473 33 36.4863 33V31ZM36.212 30.8974C36.1334 30.8188 36.0947 30.7394 36.0947 30.5938H34.0947C34.0947 31.2489 34.3295 31.8433 34.7978 32.3116L36.212 30.8974Z" fill="black" mask="url(#path-3-outside-2_389_1851)"/>
<mask id="path-5-outside-3_389_1851" maskUnits="userSpaceOnUse" x="65" y="9" width="22" height="24" fill="black">
<rect fill="white" x="65" y="9" width="22" height="24"/>
<path d="M66.0947 30.5938V12.3564C66.0947 11.9756 66.2314 11.6533 66.5049 11.3896C66.7783 11.126 67.1055 10.9941 67.4863 10.9941H84.376C84.7568 10.9941 85.0791 11.1309 85.3428 11.4043C85.6162 11.6777 85.7529 12.0049 85.7529 12.3857V13.7627C85.7529 14.1436 85.6162 14.4707 85.3428 14.7441C85.0791 15.0078 84.7568 15.1396 84.376 15.1396H71.6172V19.4023H82.6035C82.9844 19.4023 83.3066 19.5391 83.5703 19.8125C83.8438 20.0762 83.9805 20.3984 83.9805 20.7793V22.1562C83.9805 22.5371 83.8438 22.8643 83.5703 23.1377C83.3066 23.4014 82.9844 23.5332 82.6035 23.5332H71.6172V27.8545H84.3467C84.7178 27.8545 85.0352 27.9863 85.2988 28.25C85.5625 28.5137 85.6943 28.8359 85.6943 29.2168V30.623C85.6943 31.0039 85.5576 31.3311 85.2842 31.6045C85.0107 31.8682 84.6836 32 84.3027 32H67.4863C67.1055 32 66.7783 31.8682 66.5049 31.6045C66.2314 31.3311 66.0947 30.9941 66.0947 30.5938Z"/>
</mask>
<path d="M66.0947 30.5938V12.3564C66.0947 11.9756 66.2314 11.6533 66.5049 11.3896C66.7783 11.126 67.1055 10.9941 67.4863 10.9941H84.376C84.7568 10.9941 85.0791 11.1309 85.3428 11.4043C85.6162 11.6777 85.7529 12.0049 85.7529 12.3857V13.7627C85.7529 14.1436 85.6162 14.4707 85.3428 14.7441C85.0791 15.0078 84.7568 15.1396 84.376 15.1396H71.6172V19.4023H82.6035C82.9844 19.4023 83.3066 19.5391 83.5703 19.8125C83.8438 20.0762 83.9805 20.3984 83.9805 20.7793V22.1562C83.9805 22.5371 83.8438 22.8643 83.5703 23.1377C83.3066 23.4014 82.9844 23.5332 82.6035 23.5332H71.6172V27.8545H84.3467C84.7178 27.8545 85.0352 27.9863 85.2988 28.25C85.5625 28.5137 85.6943 28.8359 85.6943 29.2168V30.623C85.6943 31.0039 85.5576 31.3311 85.2842 31.6045C85.0107 31.8682 84.6836 32 84.3027 32H67.4863C67.1055 32 66.7783 31.8682 66.5049 31.6045C66.2314 31.3311 66.0947 30.9941 66.0947 30.5938Z" fill="#BDFF2E"/>
<path d="M85.3428 11.4043L84.6229 12.0984L84.6292 12.105L84.6357 12.1114L85.3428 11.4043ZM71.6172 15.1396V14.1396H70.6172V15.1396H71.6172ZM71.6172 19.4023H70.6172V20.4023H71.6172V19.4023ZM83.5703 19.8125L82.8505 20.5066L82.8631 20.5197L82.8762 20.5323L83.5703 19.8125ZM71.6172 23.5332V22.5332H70.6172V23.5332H71.6172ZM71.6172 27.8545H70.6172V28.8545H71.6172V27.8545ZM85.2842 31.6045L85.9783 32.3243L85.9849 32.318L85.9913 32.3116L85.2842 31.6045ZM66.5049 31.6045L65.7978 32.3116L65.8042 32.318L65.8107 32.3243L66.5049 31.6045ZM67.0947 30.5938V12.3564H65.0947V30.5938H67.0947ZM67.0947 12.3564C67.0947 12.2463 67.1216 12.1841 67.199 12.1095L65.8107 10.6698C65.3413 11.1225 65.0947 11.7049 65.0947 12.3564H67.0947ZM67.199 12.1095C67.2855 12.0261 67.3636 11.9941 67.4863 11.9941V9.99414C66.8473 9.99414 66.2711 10.2259 65.8107 10.6698L67.199 12.1095ZM67.4863 11.9941H84.376V9.99414H67.4863V11.9941ZM84.376 11.9941C84.4861 11.9941 84.5483 12.021 84.6229 12.0984L86.0626 10.7102C85.6099 10.2407 85.0275 9.99414 84.376 9.99414V11.9941ZM84.6357 12.1114C84.7248 12.2005 84.7529 12.2746 84.7529 12.3857H86.7529C86.7529 11.7351 86.5076 11.1549 86.0499 10.6972L84.6357 12.1114ZM84.7529 12.3857V13.7627H86.7529V12.3857H84.7529ZM84.7529 13.7627C84.7529 13.8738 84.7248 13.9479 84.6357 14.037L86.0499 15.4512C86.5076 14.9935 86.7529 14.4133 86.7529 13.7627H84.7529ZM84.6357 14.037C84.564 14.1087 84.498 14.1396 84.376 14.1396V16.1396C85.0157 16.1396 85.5942 15.9069 86.0499 15.4512L84.6357 14.037ZM84.376 14.1396H71.6172V16.1396H84.376V14.1396ZM70.6172 15.1396V19.4023H72.6172V15.1396H70.6172ZM71.6172 20.4023H82.6035V18.4023H71.6172V20.4023ZM82.6035 20.4023C82.7137 20.4023 82.7758 20.4292 82.8505 20.5066L84.2902 19.1184C83.8374 18.6489 83.2551 18.4023 82.6035 18.4023V20.4023ZM82.8762 20.5323C82.9536 20.607 82.9805 20.6691 82.9805 20.7793H84.9805C84.9805 20.1277 84.7339 19.5454 84.2644 19.0927L82.8762 20.5323ZM82.9805 20.7793V22.1562H84.9805V20.7793H82.9805ZM82.9805 22.1562C82.9805 22.2674 82.9523 22.3415 82.8632 22.4306L84.2774 23.8448C84.7352 23.3871 84.9805 22.8069 84.9805 22.1562H82.9805ZM82.8632 22.4306C82.7915 22.5023 82.7255 22.5332 82.6035 22.5332V24.5332C83.2432 24.5332 83.8218 24.3005 84.2774 23.8448L82.8632 22.4306ZM82.6035 22.5332H71.6172V24.5332H82.6035V22.5332ZM70.6172 23.5332V27.8545H72.6172V23.5332H70.6172ZM71.6172 28.8545H84.3467V26.8545H71.6172V28.8545ZM84.3467 28.8545C84.4511 28.8545 84.5146 28.8799 84.5917 28.9571L86.0059 27.5429C85.5557 27.0927 84.9844 26.8545 84.3467 26.8545V28.8545ZM84.5917 28.9571C84.6634 29.0288 84.6943 29.0948 84.6943 29.2168H86.6943C86.6943 28.5771 86.4616 27.9985 86.0059 27.5429L84.5917 28.9571ZM84.6943 29.2168V30.623H86.6943V29.2168H84.6943ZM84.6943 30.623C84.6943 30.7342 84.6662 30.8083 84.5771 30.8974L85.9913 32.3116C86.449 31.8539 86.6943 31.2737 86.6943 30.623H84.6943ZM84.59 30.8846C84.5035 30.9681 84.4254 31 84.3027 31V33C84.9418 33 85.5179 32.7683 85.9783 32.3243L84.59 30.8846ZM84.3027 31H67.4863V33H84.3027V31ZM67.4863 31C67.3636 31 67.2855 30.9681 67.199 30.8846L65.8107 32.3243C66.2711 32.7683 66.8473 33 67.4863 33V31ZM67.212 30.8974C67.1334 30.8188 67.0947 30.7394 67.0947 30.5938H65.0947C65.0947 31.2489 65.3295 31.8433 65.7978 32.3116L67.212 30.8974Z" fill="black" mask="url(#path-5-outside-3_389_1851)"/>
<mask id="path-7-outside-4_389_1851" maskUnits="userSpaceOnUse" x="95" y="9" width="9" height="12" fill="black">
<rect fill="white" x="95" y="9" width="9" height="12"/>
<path d="M96.4062 17.0879L98.1494 12.6787C98.3545 12.2002 98.6572 11.7998 99.0576 11.4775C99.4678 11.1553 99.9365 10.9941 100.464 10.9941H101.035C101.65 10.9941 102.056 11.1553 102.251 11.4775C102.456 11.7998 102.5 12.3027 102.383 12.9863L101.504 17.6885C101.426 18.1475 101.162 18.543 100.713 18.875C100.264 19.207 99.79 19.373 99.292 19.373H98.0908C97.3096 19.373 96.7627 19.168 96.4502 18.7578C96.1475 18.3477 96.1328 17.791 96.4062 17.0879Z"/>
</mask>
<path d="M96.4062 17.0879L98.1494 12.6787C98.3545 12.2002 98.6572 11.7998 99.0576 11.4775C99.4678 11.1553 99.9365 10.9941 100.464 10.9941H101.035C101.65 10.9941 102.056 11.1553 102.251 11.4775C102.456 11.7998 102.5 12.3027 102.383 12.9863L101.504 17.6885C101.426 18.1475 101.162 18.543 100.713 18.875C100.264 19.207 99.79 19.373 99.292 19.373H98.0908C97.3096 19.373 96.7627 19.168 96.4502 18.7578C96.1475 18.3477 96.1328 17.791 96.4062 17.0879Z" fill="#BDFF2E"/>
<path d="M96.4062 17.0879L95.4763 16.7202L95.4742 16.7254L96.4062 17.0879ZM98.1494 12.6787L97.2303 12.2848L97.2247 12.2978L97.2195 12.3111L98.1494 12.6787ZM99.0576 11.4775L98.4398 10.6912L98.4306 10.6985L99.0576 11.4775ZM102.251 11.4775L101.396 11.9958L101.401 12.0052L101.407 12.0144L102.251 11.4775ZM102.383 12.9863L103.366 13.1701L103.367 13.1627L103.368 13.1553L102.383 12.9863ZM101.504 17.6885L100.521 17.5047L100.519 17.5127L100.518 17.5207L101.504 17.6885ZM96.4502 18.7578L95.6456 19.3517L95.6501 19.3578L95.6548 19.3639L96.4502 18.7578ZM97.3362 17.4555L99.0794 13.0464L97.2195 12.3111L95.4763 16.7202L97.3362 17.4555ZM99.0686 13.0726C99.2101 12.7424 99.4133 12.4749 99.6846 12.2566L98.4306 10.6985C97.9011 11.1247 97.4989 11.658 97.2303 12.2848L99.0686 13.0726ZM99.6754 12.2639C99.9073 12.0817 100.158 11.9941 100.464 11.9941V9.99414C99.7151 9.99414 99.0282 10.2289 98.4398 10.6912L99.6754 12.2639ZM100.464 11.9941H101.035V9.99414H100.464V11.9941ZM101.035 11.9941C101.264 11.9941 101.384 12.0254 101.431 12.0442C101.465 12.0575 101.428 12.0493 101.396 11.9958L103.106 10.9592C102.636 10.1834 101.77 9.99414 101.035 9.99414V11.9941ZM101.407 12.0144C101.4 12.0035 101.429 12.0425 101.442 12.1835C101.454 12.3244 101.446 12.531 101.397 12.8174L103.368 13.1553C103.497 12.406 103.506 11.587 103.095 10.9407L101.407 12.0144ZM101.4 12.8026L100.521 17.5047L102.487 17.8722L103.366 13.1701L101.4 12.8026ZM100.518 17.5207C100.492 17.6755 100.404 17.8597 100.118 18.0708L101.307 19.6792C101.92 19.2262 102.36 18.6194 102.49 17.8563L100.518 17.5207ZM100.118 18.0708C99.8194 18.2919 99.5503 18.373 99.292 18.373V20.373C100.03 20.373 100.708 20.1222 101.307 19.6792L100.118 18.0708ZM99.292 18.373H98.0908V20.373H99.292V18.373ZM98.0908 18.373C97.4562 18.373 97.2873 18.2064 97.2456 18.1518L95.6548 19.3639C96.2381 20.1295 97.163 20.373 98.0908 20.373V18.373ZM97.2548 18.164C97.2422 18.1469 97.125 17.9988 97.3383 17.4503L95.4742 16.7254C95.1406 17.5833 95.0527 18.5484 95.6456 19.3517L97.2548 18.164Z" fill="black" mask="url(#path-7-outside-4_389_1851)"/>
<mask id="path-9-outside-5_389_1851" maskUnits="userSpaceOnUse" x="111" y="9" width="25" height="25" fill="black">
<rect fill="white" x="111" y="9" width="25" height="25"/>
<path d="M112.894 26.624C112.894 26.0479 113.064 25.6377 113.406 25.3936C113.748 25.1396 114.08 25.0127 114.402 25.0127H116.146C117.024 25.0127 117.693 25.4912 118.152 26.4482C118.611 27.4053 119.642 27.8838 121.243 27.8838L126.37 27.9863C128.089 27.9863 128.948 27.4248 128.948 26.3018C128.948 25.4521 127.898 24.7832 125.799 24.2949C124.861 24.0703 123.826 23.8506 122.693 23.6357C121.561 23.4111 120.433 23.1328 119.31 22.8008C118.196 22.4688 117.171 22.0781 116.233 21.6289C115.296 21.1797 114.534 20.5645 113.948 19.7832C113.372 18.9922 113.084 18.0645 113.084 17C113.084 15.0371 113.782 13.5283 115.179 12.4736C116.575 11.4092 118.978 10.877 122.386 10.877L126.106 10.9648C128.108 10.9648 129.91 11.4824 131.512 12.5176C133.123 13.543 133.929 14.8271 133.929 16.3701C133.929 16.9463 133.758 17.3613 133.416 17.6152C133.074 17.8691 132.747 17.9961 132.435 17.9961H130.691C129.812 17.9961 129.144 17.5176 128.685 16.5605C128.226 15.5938 127.195 15.1104 125.594 15.1104L121.185 15.0225C119.466 15.0225 118.606 15.584 118.606 16.707C118.606 17.3223 119.148 17.8252 120.232 18.2158C121.326 18.6064 122.645 18.9531 124.188 19.2559C125.74 19.5488 127.298 19.9053 128.86 20.3252C130.423 20.7451 131.746 21.4385 132.83 22.4053C133.924 23.3623 134.471 24.5586 134.471 25.9941C134.471 27.957 133.768 29.4707 132.361 30.5352C130.965 31.5898 128.567 32.1172 125.169 32.1172L120.73 32.0293C118.729 32.0293 116.922 31.5166 115.311 30.4912C113.699 29.4561 112.894 28.167 112.894 26.624Z"/>
</mask>
<path d="M112.894 26.624C112.894 26.0479 113.064 25.6377 113.406 25.3936C113.748 25.1396 114.08 25.0127 114.402 25.0127H116.146C117.024 25.0127 117.693 25.4912 118.152 26.4482C118.611 27.4053 119.642 27.8838 121.243 27.8838L126.37 27.9863C128.089 27.9863 128.948 27.4248 128.948 26.3018C128.948 25.4521 127.898 24.7832 125.799 24.2949C124.861 24.0703 123.826 23.8506 122.693 23.6357C121.561 23.4111 120.433 23.1328 119.31 22.8008C118.196 22.4688 117.171 22.0781 116.233 21.6289C115.296 21.1797 114.534 20.5645 113.948 19.7832C113.372 18.9922 113.084 18.0645 113.084 17C113.084 15.0371 113.782 13.5283 115.179 12.4736C116.575 11.4092 118.978 10.877 122.386 10.877L126.106 10.9648C128.108 10.9648 129.91 11.4824 131.512 12.5176C133.123 13.543 133.929 14.8271 133.929 16.3701C133.929 16.9463 133.758 17.3613 133.416 17.6152C133.074 17.8691 132.747 17.9961 132.435 17.9961H130.691C129.812 17.9961 129.144 17.5176 128.685 16.5605C128.226 15.5938 127.195 15.1104 125.594 15.1104L121.185 15.0225C119.466 15.0225 118.606 15.584 118.606 16.707C118.606 17.3223 119.148 17.8252 120.232 18.2158C121.326 18.6064 122.645 18.9531 124.188 19.2559C125.74 19.5488 127.298 19.9053 128.86 20.3252C130.423 20.7451 131.746 21.4385 132.83 22.4053C133.924 23.3623 134.471 24.5586 134.471 25.9941C134.471 27.957 133.768 29.4707 132.361 30.5352C130.965 31.5898 128.567 32.1172 125.169 32.1172L120.73 32.0293C118.729 32.0293 116.922 31.5166 115.311 30.4912C113.699 29.4561 112.894 28.167 112.894 26.624Z" fill="#BDFF2E"/>
<path d="M113.406 25.3936L113.987 26.2073L113.995 26.2019L114.003 26.1963L113.406 25.3936ZM121.243 27.8838L121.263 26.884L121.253 26.8838H121.243V27.8838ZM126.37 27.9863L126.35 28.9861L126.36 28.9863H126.37V27.9863ZM125.799 24.2949L125.566 25.2674L125.572 25.2689L125.799 24.2949ZM122.693 23.6357L122.499 24.6167L122.507 24.6182L122.693 23.6357ZM119.31 22.8008L119.024 23.7591L119.026 23.7597L119.31 22.8008ZM113.948 19.7832L113.14 20.372L113.148 20.3832L113.948 19.7832ZM115.179 12.4736L115.781 13.2716L115.785 13.2689L115.179 12.4736ZM122.386 10.877L122.409 9.87723L122.398 9.87695H122.386V10.877ZM126.106 10.9648L126.083 11.9646L126.095 11.9648H126.106V10.9648ZM131.512 12.5176L130.969 13.3574L130.975 13.3612L131.512 12.5176ZM128.685 16.5605L127.781 16.9894L127.783 16.993L128.685 16.5605ZM125.594 15.1104L125.574 16.1102L125.584 16.1104H125.594V15.1104ZM121.185 15.0225L121.205 14.0227L121.195 14.0225H121.185V15.0225ZM120.232 18.2158L119.893 19.1566L119.896 19.1576L120.232 18.2158ZM124.188 19.2559L123.995 20.2372L124.002 20.2385L124.188 19.2559ZM132.83 22.4053L132.164 23.1516L132.172 23.1579L132.83 22.4053ZM132.361 30.5352L132.964 31.3331L132.965 31.3325L132.361 30.5352ZM125.169 32.1172L125.149 33.117L125.159 33.1172H125.169V32.1172ZM120.73 32.0293L120.75 31.0295L120.74 31.0293H120.73V32.0293ZM115.311 30.4912L114.77 31.3326L114.774 31.3349L115.311 30.4912ZM113.894 26.624C113.894 26.4306 113.923 26.3218 113.945 26.2689C113.963 26.2255 113.977 26.2146 113.987 26.2073L112.825 24.5798C112.13 25.0763 111.894 25.8549 111.894 26.624H113.894ZM114.003 26.1963C114.227 26.0295 114.355 26.0127 114.402 26.0127V24.0127C113.805 24.0127 113.269 24.2498 112.81 24.5908L114.003 26.1963ZM114.402 26.0127H116.146V24.0127H114.402V26.0127ZM116.146 26.0127C116.391 26.0127 116.572 26.0756 116.725 26.1849C116.888 26.3018 117.073 26.5111 117.251 26.8807L119.054 26.0158C118.772 25.4284 118.394 24.9199 117.888 24.5583C117.372 24.1891 116.778 24.0127 116.146 24.0127V26.0127ZM117.251 26.8807C117.954 28.3463 119.477 28.8838 121.243 28.8838V26.8838C119.807 26.8838 119.269 26.4642 119.054 26.0158L117.251 26.8807ZM121.223 28.8836L126.35 28.9861L126.39 26.9865L121.263 26.884L121.223 28.8836ZM126.37 28.9863C127.307 28.9863 128.182 28.8391 128.851 28.4023C129.593 27.9172 129.948 27.1633 129.948 26.3018H127.948C127.948 26.5633 127.874 26.6516 127.757 26.728C127.566 26.8527 127.152 26.9863 126.37 26.9863V28.9863ZM129.948 26.3018C129.948 25.3934 129.367 24.7455 128.698 24.3195C128.033 23.8954 127.117 23.5748 126.025 23.3209L125.572 25.2689C126.58 25.5033 127.239 25.7614 127.624 26.0062C127.81 26.1253 127.895 26.218 127.929 26.2671C127.944 26.2896 127.948 26.3011 127.948 26.3018C127.949 26.3025 127.948 26.3022 127.948 26.3013C127.948 26.3004 127.948 26.3004 127.948 26.3018H129.948ZM126.032 23.3224C125.076 23.0935 124.025 22.8705 122.88 22.6533L122.507 24.6182C123.627 24.8307 124.646 25.0471 125.566 25.2674L126.032 23.3224ZM122.888 22.6548C121.785 22.4363 120.687 22.1653 119.593 21.8418L119.026 23.7597C120.178 24.1003 121.336 24.386 122.499 24.6166L122.888 22.6548ZM119.595 21.8425C118.527 21.5237 117.551 21.1512 116.666 20.7271L115.801 22.5307C116.791 23.005 117.866 23.4138 119.024 23.7591L119.595 21.8425ZM116.666 20.7271C115.864 20.3428 115.231 19.8274 114.748 19.1832L113.148 20.3832C113.837 21.3015 114.728 22.0166 115.801 22.5307L116.666 20.7271ZM114.757 19.1944C114.316 18.5896 114.084 17.8724 114.084 17H112.084C112.084 18.2565 112.428 19.3947 113.14 20.372L114.757 19.1944ZM114.084 17C114.084 15.307 114.668 14.1124 115.781 13.2716L114.576 11.6756C112.896 12.9442 112.084 14.7673 112.084 17H114.084ZM115.785 13.2689C116.906 12.4143 119.021 11.877 122.386 11.877V9.87695C118.934 9.87695 116.244 10.4041 114.573 11.6783L115.785 13.2689ZM122.362 11.8767L126.083 11.9646L126.13 9.96512L122.409 9.87723L122.362 11.8767ZM126.106 11.9648C127.926 11.9648 129.537 12.4322 130.969 13.3574L132.055 11.6777C130.283 10.5327 128.291 9.96484 126.106 9.96484V11.9648ZM130.975 13.3612C132.376 14.2532 132.929 15.2529 132.929 16.3701H134.929C134.929 14.4014 133.87 12.8328 132.049 11.6739L130.975 13.3612ZM132.929 16.3701C132.929 16.7507 132.824 16.8092 132.82 16.8125L134.012 18.418C134.692 17.9135 134.929 17.1419 134.929 16.3701H132.929ZM132.82 16.8125C132.589 16.984 132.467 16.9961 132.435 16.9961V18.9961C133.028 18.9961 133.56 18.7543 134.012 18.418L132.82 16.8125ZM132.435 16.9961H130.691V18.9961H132.435V16.9961ZM130.691 16.9961C130.445 16.9961 130.265 16.9332 130.112 16.8239C129.949 16.707 129.763 16.4977 129.586 16.1281L127.783 16.993C128.065 17.5804 128.443 18.0889 128.949 18.4505C129.465 18.8197 130.058 18.9961 130.691 18.9961V16.9961ZM129.588 16.1317C128.887 14.6559 127.365 14.1104 125.594 14.1104V16.1104C127.025 16.1104 127.564 16.5316 127.781 16.9894L129.588 16.1317ZM125.614 14.1105L121.205 14.0227L121.165 16.0223L125.574 16.1102L125.614 14.1105ZM121.185 14.0225C120.248 14.0225 119.373 14.1696 118.704 14.6065C117.962 15.0916 117.606 15.8455 117.606 16.707H119.606C119.606 16.4455 119.681 16.3571 119.798 16.2807C119.989 16.156 120.402 16.0225 121.185 16.0225V14.0225ZM117.606 16.707C117.606 17.3483 117.902 17.8793 118.333 18.2787C118.742 18.6583 119.288 18.9384 119.893 19.1566L120.571 17.275C120.093 17.1026 119.826 16.936 119.693 16.8126C119.632 16.7557 119.612 16.7202 119.608 16.7112C119.605 16.706 119.606 16.7082 119.606 16.707H117.606ZM119.896 19.1576C121.05 19.5696 122.419 19.9279 123.995 20.2372L124.38 18.2746C122.87 17.9783 121.603 17.6433 120.569 17.2741L119.896 19.1576ZM124.002 20.2385C125.529 20.5267 127.062 20.8774 128.601 21.2909L129.12 19.3595C127.533 18.9331 125.951 18.571 124.373 18.2732L124.002 20.2385ZM128.601 21.2909C130.03 21.675 131.21 22.2999 132.164 23.1516L133.496 21.659C132.283 20.577 130.816 19.8152 129.12 19.3595L128.601 21.2909ZM132.172 23.1579C133.051 23.9277 133.471 24.851 133.471 25.9941H135.471C135.471 24.2662 134.796 22.7969 133.489 21.6527L132.172 23.1579ZM133.471 25.9941C133.471 27.6845 132.884 28.8856 131.758 29.7378L132.965 31.3325C134.652 30.0558 135.471 28.2296 135.471 25.9941H133.471ZM131.759 29.7372C130.636 30.5848 128.524 31.1172 125.169 31.1172V33.1172C128.611 33.1172 131.293 32.5949 132.964 31.3331L131.759 29.7372ZM125.189 31.1174L120.75 31.0295L120.711 33.0291L125.149 33.117L125.189 31.1174ZM120.73 31.0293C118.909 31.0293 117.29 30.5658 115.847 29.6475L114.774 31.3349C116.553 32.4674 118.548 33.0293 120.73 33.0293V31.0293ZM115.851 29.6499C114.447 28.7479 113.894 27.7423 113.894 26.624H111.894C111.894 28.5917 112.951 30.1642 114.77 31.3326L115.851 29.6499Z" fill="black" mask="url(#path-9-outside-5_389_1851)"/>
<mask id="path-11-outside-6_389_1851" maskUnits="userSpaceOnUse" x="1" y="53" width="24" height="24" fill="black">
<rect fill="white" x="1" y="53" width="24" height="24"/>
<path d="M23.833 75.3555C23.833 75.7852 23.5791 76 23.0713 76H19.7168C19.3359 76 18.9258 75.8682 18.4863 75.6045C18.0469 75.3311 17.7051 75.0039 17.4609 74.623L14.8828 70.5361C14.2676 69.54 13.6475 68.793 13.0225 68.2949C12.3975 67.7871 11.6455 67.5332 10.7666 67.5332H7.61719V74.6523C7.61719 75.0332 7.48047 75.3555 7.20703 75.6191C6.94336 75.873 6.62109 76 6.24023 76H3.48633C3.10547 76 2.77832 75.8633 2.50488 75.5898C2.23145 75.3066 2.09473 74.9746 2.09473 74.5938V56.3857C2.09473 56.0049 2.23145 55.6729 2.50488 55.3896C2.77832 55.1064 3.10547 54.9648 3.48633 54.9648H6.24023C6.62109 54.9648 6.94336 55.1064 7.20703 55.3896C7.48047 55.6729 7.61719 56.0049 7.61719 56.3857V63.4023H10.7666C11.626 63.4023 12.3779 63.168 13.0225 62.6992C13.6768 62.2305 14.2969 61.4736 14.8828 60.4287L17.1533 56.3857C17.6709 55.4482 18.374 54.9746 19.2627 54.9648H22.6465C23.1152 54.9648 23.3496 55.1699 23.3496 55.5801C23.3496 55.8047 23.2666 56.0732 23.1006 56.3857L19.9219 62.1426C19.4629 62.9824 18.9453 63.6758 18.3691 64.2227C17.8027 64.7695 17.0605 65.1553 16.1426 65.3799C16.7871 65.5166 17.4463 65.9219 18.1201 66.5957C18.8037 67.2695 19.4043 68.002 19.9219 68.793L23.584 74.623C23.75 74.9062 23.833 75.1504 23.833 75.3555Z"/>
</mask>
<path d="M23.833 75.3555C23.833 75.7852 23.5791 76 23.0713 76H19.7168C19.3359 76 18.9258 75.8682 18.4863 75.6045C18.0469 75.3311 17.7051 75.0039 17.4609 74.623L14.8828 70.5361C14.2676 69.54 13.6475 68.793 13.0225 68.2949C12.3975 67.7871 11.6455 67.5332 10.7666 67.5332H7.61719V74.6523C7.61719 75.0332 7.48047 75.3555 7.20703 75.6191C6.94336 75.873 6.62109 76 6.24023 76H3.48633C3.10547 76 2.77832 75.8633 2.50488 75.5898C2.23145 75.3066 2.09473 74.9746 2.09473 74.5938V56.3857C2.09473 56.0049 2.23145 55.6729 2.50488 55.3896C2.77832 55.1064 3.10547 54.9648 3.48633 54.9648H6.24023C6.62109 54.9648 6.94336 55.1064 7.20703 55.3896C7.48047 55.6729 7.61719 56.0049 7.61719 56.3857V63.4023H10.7666C11.626 63.4023 12.3779 63.168 13.0225 62.6992C13.6768 62.2305 14.2969 61.4736 14.8828 60.4287L17.1533 56.3857C17.6709 55.4482 18.374 54.9746 19.2627 54.9648H22.6465C23.1152 54.9648 23.3496 55.1699 23.3496 55.5801C23.3496 55.8047 23.2666 56.0732 23.1006 56.3857L19.9219 62.1426C19.4629 62.9824 18.9453 63.6758 18.3691 64.2227C17.8027 64.7695 17.0605 65.1553 16.1426 65.3799C16.7871 65.5166 17.4463 65.9219 18.1201 66.5957C18.8037 67.2695 19.4043 68.002 19.9219 68.793L23.584 74.623C23.75 74.9062 23.833 75.1504 23.833 75.3555Z" fill="#BDFF2E"/>
<path d="M18.4863 75.6045L17.958 76.4535L17.9649 76.4578L17.9718 76.462L18.4863 75.6045ZM17.4609 74.623L16.6151 75.1566L16.6191 75.1627L17.4609 74.623ZM14.8828 70.5361L14.032 71.0616L14.037 71.0697L14.8828 70.5361ZM13.0225 68.2949L12.3918 69.0711L12.3993 69.077L13.0225 68.2949ZM7.61719 67.5332V66.5332H6.61719V67.5332H7.61719ZM7.20703 75.6191L7.90067 76.3395L7.90117 76.339L7.20703 75.6191ZM2.50488 75.5898L1.78548 76.2844L1.79157 76.2907L1.79778 76.297L2.50488 75.5898ZM7.20703 55.3896L6.47514 56.0711L6.48132 56.0777L6.48763 56.0842L7.20703 55.3896ZM7.61719 63.4023H6.61719V64.4023H7.61719V63.4023ZM13.0225 62.6992L12.4401 61.8863L12.4343 61.8905L13.0225 62.6992ZM14.8828 60.4287L14.0109 59.939L14.0106 59.9396L14.8828 60.4287ZM17.1533 56.3857L18.0253 56.8754L18.0288 56.8691L17.1533 56.3857ZM19.2627 54.9648V53.9648L19.2517 53.9649L19.2627 54.9648ZM23.1006 56.3857L23.976 56.8691L23.9799 56.862L23.9837 56.8549L23.1006 56.3857ZM19.9219 62.1426L19.0465 61.6592L19.0444 61.663L19.9219 62.1426ZM18.3691 64.2227L17.6807 63.4973L17.6745 63.5033L18.3691 64.2227ZM16.1426 65.3799L15.9049 64.4085L15.9351 66.3581L16.1426 65.3799ZM18.1201 66.5957L17.413 67.3028L17.4181 67.3079L18.1201 66.5957ZM19.9219 68.793L20.7687 68.2611L20.7637 68.2532L20.7587 68.2454L19.9219 68.793ZM23.584 74.623L24.4467 74.1173L24.4389 74.1041L24.4308 74.0911L23.584 74.623ZM22.833 75.3555C22.833 75.3666 22.8312 75.3314 22.855 75.2709C22.8812 75.2043 22.9287 75.133 22.9966 75.0755C23.1242 74.9676 23.2081 75 23.0713 75V77C23.4423 77 23.9071 76.925 24.2885 76.6023C24.702 76.2524 24.833 75.7723 24.833 75.3555H22.833ZM23.0713 75H19.7168V77H23.0713V75ZM19.7168 75C19.5694 75 19.3368 74.9486 19.0008 74.747L17.9718 76.462C18.5148 76.7877 19.1024 77 19.7168 77V75ZM19.0146 74.7554C18.6832 74.5492 18.4559 74.3222 18.3028 74.0834L16.6191 75.1627C16.9542 75.6856 17.4106 76.1129 17.958 76.4535L19.0146 74.7554ZM18.3067 74.0895L15.7286 70.0026L14.037 71.0697L16.6152 75.1566L18.3067 74.0895ZM15.7336 70.0106C15.0834 68.9579 14.3922 68.1078 13.6457 67.5129L12.3993 69.077C12.9027 69.4782 13.4518 70.1222 14.032 71.0616L15.7336 70.0106ZM13.6531 67.5188C12.8331 66.8526 11.8527 66.5332 10.7666 66.5332V68.5332C11.4383 68.5332 11.9618 68.7216 12.3919 69.071L13.6531 67.5188ZM10.7666 66.5332H7.61719V68.5332H10.7666V66.5332ZM6.61719 67.5332V74.6523H8.61719V67.5332H6.61719ZM6.61719 74.6523C6.61719 74.7625 6.5903 74.8247 6.5129 74.8993L7.90117 76.339C8.37064 75.8863 8.61719 75.3039 8.61719 74.6523H6.61719ZM6.51339 74.8988C6.44425 74.9654 6.37402 75 6.24023 75V77C6.86817 77 7.44247 76.7807 7.90067 76.3395L6.51339 74.8988ZM6.24023 75H3.48633V77H6.24023V75ZM3.48633 75C3.37522 75 3.30112 74.9719 3.21199 74.8827L1.79778 76.297C2.25552 76.7547 2.83572 77 3.48633 77V75ZM3.22428 74.8952C3.12412 74.7915 3.09473 74.7059 3.09473 74.5938H1.09473C1.09473 75.2433 1.33877 75.8218 1.78548 76.2844L3.22428 74.8952ZM3.09473 74.5938V56.3857H1.09473V74.5938H3.09473ZM3.09473 56.3857C3.09473 56.2736 3.12412 56.188 3.22428 56.0842L1.78548 54.6951C1.33877 55.1577 1.09473 55.7362 1.09473 56.3857H3.09473ZM3.22428 56.0842C3.3164 55.9888 3.38685 55.9648 3.48633 55.9648V53.9648C2.82409 53.9648 2.24024 54.2241 1.78548 54.6951L3.22428 56.0842ZM3.48633 55.9648H6.24023V53.9648H3.48633V55.9648ZM6.24023 55.9648C6.33849 55.9648 6.3972 55.9874 6.47514 56.0711L7.93893 54.7082C7.48952 54.2255 6.9037 53.9648 6.24023 53.9648V55.9648ZM6.48763 56.0842C6.58779 56.188 6.61719 56.2736 6.61719 56.3857H8.61719C8.61719 55.7362 8.37314 55.1577 7.92643 54.6951L6.48763 56.0842ZM6.61719 56.3857V63.4023H8.61719V56.3857H6.61719ZM7.61719 64.4023H10.7666V62.4023H7.61719V64.4023ZM10.7666 64.4023C11.8198 64.4023 12.7815 64.1109 13.6106 63.508L12.4343 61.8905C11.9743 62.225 11.4321 62.4023 10.7666 62.4023V64.4023ZM13.6048 63.5121C14.422 62.9267 15.1294 62.0335 15.755 60.9178L14.0106 59.9396C13.4643 60.9138 12.9315 61.5343 12.4401 61.8863L13.6048 63.5121ZM15.7547 60.9184L18.0252 56.8754L16.2814 55.8961L14.0109 59.939L15.7547 60.9184ZM18.0288 56.8691C18.4145 56.1704 18.8248 55.9697 19.2737 55.9648L19.2517 53.9649C17.9233 53.9795 16.9273 54.7261 16.2779 55.9024L18.0288 56.8691ZM19.2627 55.9648H22.6465V53.9648H19.2627V55.9648ZM22.6465 55.9648C22.7571 55.9648 22.6533 55.9919 22.5153 55.8712C22.4439 55.8087 22.3967 55.7338 22.3712 55.6669C22.348 55.606 22.3496 55.5704 22.3496 55.5801H24.3496C24.3496 55.1836 24.2301 54.7142 23.8323 54.3661C23.46 54.0403 23.0046 53.9648 22.6465 53.9648V55.9648ZM22.3496 55.5801C22.3496 55.5708 22.351 55.5931 22.332 55.6546C22.3131 55.7158 22.2782 55.8023 22.2175 55.9166L23.9837 56.8549C24.1866 56.4729 24.3496 56.0361 24.3496 55.5801H22.3496ZM22.2252 55.9024L19.0465 61.6592L20.7973 62.6259L23.976 56.8691L22.2252 55.9024ZM19.0444 61.663C18.6254 62.4297 18.1679 63.035 17.6807 63.4974L19.0576 64.948C19.7228 64.3166 20.3004 63.5352 20.7994 62.6221L19.0444 61.663ZM17.6745 63.5033C17.2588 63.9047 16.6855 64.2176 15.9049 64.4085L16.3802 66.3512C17.4356 66.093 18.3467 65.6344 19.0637 64.9421L17.6745 63.5033ZM15.9351 66.3581C16.3236 66.4405 16.818 66.7078 17.413 67.3028L18.8272 65.8886C18.0745 65.1359 17.2506 64.5927 16.3501 64.4016L15.9351 66.3581ZM17.4181 67.3079C18.0518 67.9325 18.6071 68.6099 19.0851 69.3405L20.7587 68.2454C20.2015 67.394 19.5556 66.6065 18.8221 65.8835L17.4181 67.3079ZM19.0751 69.3249L22.7372 75.155L24.4308 74.0911L20.7687 68.2611L19.0751 69.3249ZM22.7213 75.1288C22.7789 75.227 22.8092 75.2969 22.824 75.3405C22.8389 75.3844 22.833 75.3864 22.833 75.3555H24.833C24.833 74.8961 24.6538 74.4707 24.4467 74.1173L22.7213 75.1288Z" fill="black" mask="url(#path-11-outside-6_389_1851)"/>
<mask id="path-13-outside-7_389_1851" maskUnits="userSpaceOnUse" x="33" y="53" width="24" height="24" fill="black">
<rect fill="white" x="33" y="53" width="24" height="24"/>
<path d="M34.0947 74.623V56.3857C34.0947 56.0049 34.2266 55.6777 34.4902 55.4043C34.7539 55.1309 35.0762 54.9941 35.457 54.9941H39.7637C40.1055 54.9941 40.4668 55.1309 40.8477 55.4043C41.2285 55.6777 41.541 56.0049 41.7852 56.3857L50.6328 69.9941V56.3564C50.6328 55.9756 50.7646 55.6533 51.0283 55.3896C51.3018 55.126 51.6289 54.9941 52.0098 54.9941H54.5293C54.9102 54.9941 55.2324 55.126 55.4961 55.3896C55.7695 55.6533 55.9062 55.9854 55.9062 56.3857V74.623C55.9062 75.0039 55.7695 75.3311 55.4961 75.6045C55.2324 75.8682 54.9102 76 54.5293 76H49.666C49.2852 76 48.8945 75.8682 48.4941 75.6045C48.0938 75.3311 47.7764 75.0039 47.542 74.623L39.4414 62.0547V74.623C39.4414 75.0039 39.3047 75.3311 39.0312 75.6045C38.7676 75.8682 38.4453 76 38.0645 76H35.4863C35.1055 76 34.7783 75.8682 34.5049 75.6045C34.2314 75.3311 34.0947 75.0039 34.0947 74.623Z"/>
</mask>
<path d="M34.0947 74.623V56.3857C34.0947 56.0049 34.2266 55.6777 34.4902 55.4043C34.7539 55.1309 35.0762 54.9941 35.457 54.9941H39.7637C40.1055 54.9941 40.4668 55.1309 40.8477 55.4043C41.2285 55.6777 41.541 56.0049 41.7852 56.3857L50.6328 69.9941V56.3564C50.6328 55.9756 50.7646 55.6533 51.0283 55.3896C51.3018 55.126 51.6289 54.9941 52.0098 54.9941H54.5293C54.9102 54.9941 55.2324 55.126 55.4961 55.3896C55.7695 55.6533 55.9062 55.9854 55.9062 56.3857V74.623C55.9062 75.0039 55.7695 75.3311 55.4961 75.6045C55.2324 75.8682 54.9102 76 54.5293 76H49.666C49.2852 76 48.8945 75.8682 48.4941 75.6045C48.0938 75.3311 47.7764 75.0039 47.542 74.623L39.4414 62.0547V74.623C39.4414 75.0039 39.3047 75.3311 39.0312 75.6045C38.7676 75.8682 38.4453 76 38.0645 76H35.4863C35.1055 76 34.7783 75.8682 34.5049 75.6045C34.2314 75.3311 34.0947 75.0039 34.0947 74.623Z" fill="#BDFF2E"/>
<path d="M41.7852 56.3857L40.9433 56.9254L40.9468 56.9308L41.7852 56.3857ZM50.6328 69.9941L49.7944 70.5392L51.6328 73.3668V69.9941H50.6328ZM51.0283 55.3896L50.3342 54.6698L50.3276 54.6761L50.3212 54.6825L51.0283 55.3896ZM55.4961 55.3896L54.789 56.0968L54.7954 56.1032L54.802 56.1095L55.4961 55.3896ZM48.4941 75.6045L47.9302 76.4303L47.9371 76.435L47.9441 76.4397L48.4941 75.6045ZM47.542 74.623L48.3937 74.0989L48.3882 74.0901L48.3825 74.0813L47.542 74.623ZM39.4414 62.0547L40.2819 61.5129L38.4414 58.6573V62.0547H39.4414ZM34.5049 75.6045L33.7978 76.3116L33.8042 76.318L33.8107 76.3243L34.5049 75.6045ZM35.0947 74.623V56.3857H33.0947V74.623H35.0947ZM35.0947 56.3857C35.0947 56.263 35.1267 56.1849 35.2101 56.0984L33.7704 54.7102C33.3265 55.1705 33.0947 55.7467 33.0947 56.3857H35.0947ZM35.2101 56.0984C35.2847 56.021 35.3469 55.9941 35.457 55.9941V53.9941C34.8055 53.9941 34.2231 54.2407 33.7704 54.7102L35.2101 56.0984ZM35.457 55.9941H39.7637V53.9941H35.457V55.9941ZM39.7637 55.9941C39.8312 55.9941 39.9918 56.0208 40.2644 56.2166L41.4309 54.592C40.9418 54.2409 40.3797 53.9941 39.7637 53.9941V55.9941ZM40.2644 56.2166C40.5464 56.4191 40.7698 56.6548 40.9433 56.9254L42.627 55.8461C42.3122 55.3549 41.9106 54.9364 41.4309 54.592L40.2644 56.2166ZM40.9468 56.9308L49.7944 70.5392L51.4712 69.4491L42.6235 55.8407L40.9468 56.9308ZM51.6328 69.9941V56.3564H49.6328V69.9941H51.6328ZM51.6328 56.3564C51.6328 56.2344 51.6637 56.1684 51.7354 56.0968L50.3212 54.6825C49.8656 55.1382 49.6328 55.7167 49.6328 56.3564H51.6328ZM51.7225 56.1095C51.809 56.0261 51.8871 55.9941 52.0098 55.9941V53.9941C51.3707 53.9941 50.7946 54.2259 50.3342 54.6698L51.7225 56.1095ZM52.0098 55.9941H54.5293V53.9941H52.0098V55.9941ZM54.5293 55.9941C54.6513 55.9941 54.7173 56.0251 54.789 56.0968L56.2032 54.6825C55.7475 54.2269 55.169 53.9941 54.5293 53.9941V55.9941ZM54.802 56.1095C54.8684 56.1736 54.9062 56.2405 54.9062 56.3857H56.9062C56.9062 55.7302 56.6706 55.133 56.1902 54.6698L54.802 56.1095ZM54.9062 56.3857V74.623H56.9062V56.3857H54.9062ZM54.9062 74.623C54.9062 74.7342 54.8781 74.8083 54.789 74.8974L56.2032 76.3116C56.6609 75.8539 56.9062 75.2737 56.9062 74.623H54.9062ZM54.789 74.8974C54.7173 74.9691 54.6513 75 54.5293 75V77C55.169 77 55.7475 76.7673 56.2032 76.3116L54.789 74.8974ZM54.5293 75H49.666V77H54.5293V75ZM49.666 75C49.5257 75 49.3234 74.9532 49.0441 74.7693L47.9441 76.4397C48.4656 76.7831 49.0446 77 49.666 77V75ZM49.0581 74.7787C48.7639 74.5777 48.5484 74.3504 48.3937 74.0989L46.6903 75.1471C47.0044 75.6575 47.4236 76.0844 47.9302 76.4303L49.0581 74.7787ZM48.3825 74.0813L40.2819 61.5129L38.6009 62.5964L46.7015 75.1648L48.3825 74.0813ZM38.4414 62.0547V74.623H40.4414V62.0547H38.4414ZM38.4414 74.623C38.4414 74.7342 38.4133 74.8083 38.3241 74.8974L39.7384 76.3116C40.1961 75.8539 40.4414 75.2737 40.4414 74.623H38.4414ZM38.3241 74.8974C38.2525 74.9691 38.1865 75 38.0645 75V77C38.7042 77 39.2827 76.7673 39.7384 76.3116L38.3241 74.8974ZM38.0645 75H35.4863V77H38.0645V75ZM35.4863 75C35.3636 75 35.2855 74.9681 35.199 74.8846L33.8107 76.3243C34.2711 76.7683 34.8473 77 35.4863 77V75ZM35.212 74.8974C35.1229 74.8083 35.0947 74.7342 35.0947 74.623H33.0947C33.0947 75.2737 33.34 75.8539 33.7978 76.3116L35.212 74.8974Z" fill="black" mask="url(#path-13-outside-7_389_1851)"/>
<mask id="path-15-outside-8_389_1851" maskUnits="userSpaceOnUse" x="68" y="53" width="22" height="24" fill="black">
<rect fill="white" x="68" y="53" width="22" height="24"/>
<path d="M69.0947 74.5938V56.3564C69.0947 55.9756 69.2314 55.6533 69.5049 55.3896C69.7783 55.126 70.1055 54.9941 70.4863 54.9941H87.376C87.7568 54.9941 88.0791 55.1309 88.3428 55.4043C88.6162 55.6777 88.7529 56.0049 88.7529 56.3857V57.7627C88.7529 58.1436 88.6162 58.4707 88.3428 58.7441C88.0791 59.0078 87.7568 59.1396 87.376 59.1396H74.6172V63.4023H85.6035C85.9844 63.4023 86.3066 63.5391 86.5703 63.8125C86.8438 64.0762 86.9805 64.3984 86.9805 64.7793V66.1562C86.9805 66.5371 86.8438 66.8643 86.5703 67.1377C86.3066 67.4014 85.9844 67.5332 85.6035 67.5332H74.6172V71.8545H87.3467C87.7178 71.8545 88.0352 71.9863 88.2988 72.25C88.5625 72.5137 88.6943 72.8359 88.6943 73.2168V74.623C88.6943 75.0039 88.5576 75.3311 88.2842 75.6045C88.0107 75.8682 87.6836 76 87.3027 76H70.4863C70.1055 76 69.7783 75.8682 69.5049 75.6045C69.2314 75.3311 69.0947 74.9941 69.0947 74.5938Z"/>
</mask>
<path d="M69.0947 74.5938V56.3564C69.0947 55.9756 69.2314 55.6533 69.5049 55.3896C69.7783 55.126 70.1055 54.9941 70.4863 54.9941H87.376C87.7568 54.9941 88.0791 55.1309 88.3428 55.4043C88.6162 55.6777 88.7529 56.0049 88.7529 56.3857V57.7627C88.7529 58.1436 88.6162 58.4707 88.3428 58.7441C88.0791 59.0078 87.7568 59.1396 87.376 59.1396H74.6172V63.4023H85.6035C85.9844 63.4023 86.3066 63.5391 86.5703 63.8125C86.8438 64.0762 86.9805 64.3984 86.9805 64.7793V66.1562C86.9805 66.5371 86.8438 66.8643 86.5703 67.1377C86.3066 67.4014 85.9844 67.5332 85.6035 67.5332H74.6172V71.8545H87.3467C87.7178 71.8545 88.0352 71.9863 88.2988 72.25C88.5625 72.5137 88.6943 72.8359 88.6943 73.2168V74.623C88.6943 75.0039 88.5576 75.3311 88.2842 75.6045C88.0107 75.8682 87.6836 76 87.3027 76H70.4863C70.1055 76 69.7783 75.8682 69.5049 75.6045C69.2314 75.3311 69.0947 74.9941 69.0947 74.5938Z" fill="#BDFF2E"/>
<path d="M88.3428 55.4043L87.6229 56.0984L87.6292 56.105L87.6357 56.1114L88.3428 55.4043ZM74.6172 59.1396V58.1396H73.6172V59.1396H74.6172ZM74.6172 63.4023H73.6172V64.4023H74.6172V63.4023ZM86.5703 63.8125L85.8505 64.5066L85.8631 64.5197L85.8762 64.5323L86.5703 63.8125ZM74.6172 67.5332V66.5332H73.6172V67.5332H74.6172ZM74.6172 71.8545H73.6172V72.8545H74.6172V71.8545ZM88.2842 75.6045L88.9783 76.3243L88.9849 76.318L88.9913 76.3116L88.2842 75.6045ZM69.5049 75.6045L68.7978 76.3116L68.8042 76.318L68.8107 76.3243L69.5049 75.6045ZM70.0947 74.5938V56.3564H68.0947V74.5938H70.0947ZM70.0947 56.3564C70.0947 56.2463 70.1216 56.1841 70.199 56.1095L68.8107 54.6698C68.3413 55.1225 68.0947 55.7049 68.0947 56.3564H70.0947ZM70.199 56.1095C70.2855 56.0261 70.3636 55.9941 70.4863 55.9941V53.9941C69.8473 53.9941 69.2711 54.2259 68.8107 54.6698L70.199 56.1095ZM70.4863 55.9941H87.376V53.9941H70.4863V55.9941ZM87.376 55.9941C87.4861 55.9941 87.5483 56.021 87.6229 56.0984L89.0626 54.7102C88.6099 54.2407 88.0275 53.9941 87.376 53.9941V55.9941ZM87.6357 56.1114C87.7248 56.2005 87.7529 56.2746 87.7529 56.3857H89.7529C89.7529 55.7351 89.5076 55.1549 89.0499 54.6972L87.6357 56.1114ZM87.7529 56.3857V57.7627H89.7529V56.3857H87.7529ZM87.7529 57.7627C87.7529 57.8738 87.7248 57.9479 87.6357 58.037L89.0499 59.4512C89.5076 58.9935 89.7529 58.4133 89.7529 57.7627H87.7529ZM87.6357 58.037C87.564 58.1087 87.498 58.1396 87.376 58.1396V60.1396C88.0157 60.1396 88.5942 59.9069 89.0499 59.4512L87.6357 58.037ZM87.376 58.1396H74.6172V60.1396H87.376V58.1396ZM73.6172 59.1396V63.4023H75.6172V59.1396H73.6172ZM74.6172 64.4023H85.6035V62.4023H74.6172V64.4023ZM85.6035 64.4023C85.7137 64.4023 85.7758 64.4292 85.8505 64.5066L87.2902 63.1184C86.8374 62.6489 86.2551 62.4023 85.6035 62.4023V64.4023ZM85.8762 64.5323C85.9536 64.607 85.9805 64.6691 85.9805 64.7793H87.9805C87.9805 64.1277 87.7339 63.5454 87.2644 63.0927L85.8762 64.5323ZM85.9805 64.7793V66.1562H87.9805V64.7793H85.9805ZM85.9805 66.1562C85.9805 66.2674 85.9523 66.3415 85.8632 66.4306L87.2774 67.8448C87.7352 67.3871 87.9805 66.8069 87.9805 66.1562H85.9805ZM85.8632 66.4306C85.7915 66.5023 85.7255 66.5332 85.6035 66.5332V68.5332C86.2432 68.5332 86.8218 68.3005 87.2774 67.8448L85.8632 66.4306ZM85.6035 66.5332H74.6172V68.5332H85.6035V66.5332ZM73.6172 67.5332V71.8545H75.6172V67.5332H73.6172ZM74.6172 72.8545H87.3467V70.8545H74.6172V72.8545ZM87.3467 72.8545C87.4511 72.8545 87.5146 72.8799 87.5917 72.9571L89.0059 71.5429C88.5557 71.0927 87.9844 70.8545 87.3467 70.8545V72.8545ZM87.5917 72.9571C87.6634 73.0288 87.6943 73.0948 87.6943 73.2168H89.6943C89.6943 72.5771 89.4616 71.9985 89.0059 71.5429L87.5917 72.9571ZM87.6943 73.2168V74.623H89.6943V73.2168H87.6943ZM87.6943 74.623C87.6943 74.7342 87.6662 74.8083 87.5771 74.8974L88.9913 76.3116C89.449 75.8539 89.6943 75.2737 89.6943 74.623H87.6943ZM87.59 74.8846C87.5035 74.9681 87.4254 75 87.3027 75V77C87.9418 77 88.5179 76.7683 88.9783 76.3243L87.59 74.8846ZM87.3027 75H70.4863V77H87.3027V75ZM70.4863 75C70.3636 75 70.2855 74.9681 70.199 74.8846L68.8107 76.3243C69.2711 76.7683 69.8473 77 70.4863 77V75ZM70.212 74.8974C70.1334 74.8188 70.0947 74.7394 70.0947 74.5938H68.0947C68.0947 75.2489 68.3295 75.8433 68.7978 76.3116L70.212 74.8974Z" fill="black" mask="url(#path-15-outside-8_389_1851)"/>
<mask id="path-17-outside-9_389_1851" maskUnits="userSpaceOnUse" x="99" y="53" width="22" height="24" fill="black">
<rect fill="white" x="99" y="53" width="22" height="24"/>
<path d="M100.095 74.5938V56.3564C100.095 55.9756 100.231 55.6533 100.505 55.3896C100.778 55.126 101.105 54.9941 101.486 54.9941H118.376C118.757 54.9941 119.079 55.1309 119.343 55.4043C119.616 55.6777 119.753 56.0049 119.753 56.3857V57.7627C119.753 58.1436 119.616 58.4707 119.343 58.7441C119.079 59.0078 118.757 59.1396 118.376 59.1396H105.617V63.4023H116.604C116.984 63.4023 117.307 63.5391 117.57 63.8125C117.844 64.0762 117.98 64.3984 117.98 64.7793V66.1562C117.98 66.5371 117.844 66.8643 117.57 67.1377C117.307 67.4014 116.984 67.5332 116.604 67.5332H105.617V71.8545H118.347C118.718 71.8545 119.035 71.9863 119.299 72.25C119.562 72.5137 119.694 72.8359 119.694 73.2168V74.623C119.694 75.0039 119.558 75.3311 119.284 75.6045C119.011 75.8682 118.684 76 118.303 76H101.486C101.105 76 100.778 75.8682 100.505 75.6045C100.231 75.3311 100.095 74.9941 100.095 74.5938Z"/>
</mask>
<path d="M100.095 74.5938V56.3564C100.095 55.9756 100.231 55.6533 100.505 55.3896C100.778 55.126 101.105 54.9941 101.486 54.9941H118.376C118.757 54.9941 119.079 55.1309 119.343 55.4043C119.616 55.6777 119.753 56.0049 119.753 56.3857V57.7627C119.753 58.1436 119.616 58.4707 119.343 58.7441C119.079 59.0078 118.757 59.1396 118.376 59.1396H105.617V63.4023H116.604C116.984 63.4023 117.307 63.5391 117.57 63.8125C117.844 64.0762 117.98 64.3984 117.98 64.7793V66.1562C117.98 66.5371 117.844 66.8643 117.57 67.1377C117.307 67.4014 116.984 67.5332 116.604 67.5332H105.617V71.8545H118.347C118.718 71.8545 119.035 71.9863 119.299 72.25C119.562 72.5137 119.694 72.8359 119.694 73.2168V74.623C119.694 75.0039 119.558 75.3311 119.284 75.6045C119.011 75.8682 118.684 76 118.303 76H101.486C101.105 76 100.778 75.8682 100.505 75.6045C100.231 75.3311 100.095 74.9941 100.095 74.5938Z" fill="#BDFF2E"/>
<path d="M119.343 55.4043L118.623 56.0984L118.629 56.105L118.636 56.1114L119.343 55.4043ZM105.617 59.1396V58.1396H104.617V59.1396H105.617ZM105.617 63.4023H104.617V64.4023H105.617V63.4023ZM117.57 63.8125L116.85 64.5066L116.863 64.5197L116.876 64.5323L117.57 63.8125ZM105.617 67.5332V66.5332H104.617V67.5332H105.617ZM105.617 71.8545H104.617V72.8545H105.617V71.8545ZM119.284 75.6045L119.978 76.3243L119.985 76.318L119.991 76.3116L119.284 75.6045ZM100.505 75.6045L99.7978 76.3116L99.8042 76.318L99.8107 76.3243L100.505 75.6045ZM101.095 74.5938V56.3564H99.0947V74.5938H101.095ZM101.095 56.3564C101.095 56.2463 101.122 56.1841 101.199 56.1095L99.8107 54.6698C99.3413 55.1225 99.0947 55.7049 99.0947 56.3564H101.095ZM101.199 56.1095C101.286 56.0261 101.364 55.9941 101.486 55.9941V53.9941C100.847 53.9941 100.271 54.2259 99.8107 54.6698L101.199 56.1095ZM101.486 55.9941H118.376V53.9941H101.486V55.9941ZM118.376 55.9941C118.486 55.9941 118.548 56.021 118.623 56.0984L120.063 54.7102C119.61 54.2407 119.028 53.9941 118.376 53.9941V55.9941ZM118.636 56.1114C118.725 56.2005 118.753 56.2746 118.753 56.3857H120.753C120.753 55.7351 120.508 55.1549 120.05 54.6972L118.636 56.1114ZM118.753 56.3857V57.7627H120.753V56.3857H118.753ZM118.753 57.7627C118.753 57.8738 118.725 57.9479 118.636 58.037L120.05 59.4512C120.508 58.9935 120.753 58.4133 120.753 57.7627H118.753ZM118.636 58.037C118.564 58.1087 118.498 58.1396 118.376 58.1396V60.1396C119.016 60.1396 119.594 59.9069 120.05 59.4512L118.636 58.037ZM118.376 58.1396H105.617V60.1396H118.376V58.1396ZM104.617 59.1396V63.4023H106.617V59.1396H104.617ZM105.617 64.4023H116.604V62.4023H105.617V64.4023ZM116.604 64.4023C116.714 64.4023 116.776 64.4292 116.85 64.5066L118.29 63.1184C117.837 62.6489 117.255 62.4023 116.604 62.4023V64.4023ZM116.876 64.5323C116.954 64.607 116.98 64.6691 116.98 64.7793H118.98C118.98 64.1277 118.734 63.5454 118.264 63.0927L116.876 64.5323ZM116.98 64.7793V66.1562H118.98V64.7793H116.98ZM116.98 66.1562C116.98 66.2674 116.952 66.3415 116.863 66.4306L118.277 67.8448C118.735 67.3871 118.98 66.8069 118.98 66.1562H116.98ZM116.863 66.4306C116.792 66.5023 116.726 66.5332 116.604 66.5332V68.5332C117.243 68.5332 117.822 68.3005 118.277 67.8448L116.863 66.4306ZM116.604 66.5332H105.617V68.5332H116.604V66.5332ZM104.617 67.5332V71.8545H106.617V67.5332H104.617ZM105.617 72.8545H118.347V70.8545H105.617V72.8545ZM118.347 72.8545C118.451 72.8545 118.515 72.8799 118.592 72.9571L120.006 71.5429C119.556 71.0927 118.984 70.8545 118.347 70.8545V72.8545ZM118.592 72.9571C118.663 73.0288 118.694 73.0948 118.694 73.2168H120.694C120.694 72.5771 120.462 71.9985 120.006 71.5429L118.592 72.9571ZM118.694 73.2168V74.623H120.694V73.2168H118.694ZM118.694 74.623C118.694 74.7342 118.666 74.8083 118.577 74.8974L119.991 76.3116C120.449 75.8539 120.694 75.2737 120.694 74.623H118.694ZM118.59 74.8846C118.504 74.9681 118.425 75 118.303 75V77C118.942 77 119.518 76.7683 119.978 76.3243L118.59 74.8846ZM118.303 75H101.486V77H118.303V75ZM101.486 75C101.364 75 101.286 74.9681 101.199 74.8846L99.8107 76.3243C100.271 76.7683 100.847 77 101.486 77V75ZM101.212 74.8974C101.133 74.8188 101.095 74.7394 101.095 74.5938H99.0947C99.0947 75.2489 99.3295 75.8433 99.7978 76.3116L101.212 74.8974Z" fill="black" mask="url(#path-17-outside-9_389_1851)"/>
<mask id="path-19-outside-10_389_1851" maskUnits="userSpaceOnUse" x="128" y="53" width="25" height="25" fill="black">
<rect fill="white" x="128" y="53" width="25" height="25"/>
<path d="M129.894 70.624C129.894 70.0479 130.064 69.6377 130.406 69.3936C130.748 69.1396 131.08 69.0127 131.402 69.0127H133.146C134.024 69.0127 134.693 69.4912 135.152 70.4482C135.611 71.4053 136.642 71.8838 138.243 71.8838L143.37 71.9863C145.089 71.9863 145.948 71.4248 145.948 70.3018C145.948 69.4521 144.898 68.7832 142.799 68.2949C141.861 68.0703 140.826 67.8506 139.693 67.6357C138.561 67.4111 137.433 67.1328 136.31 66.8008C135.196 66.4688 134.171 66.0781 133.233 65.6289C132.296 65.1797 131.534 64.5645 130.948 63.7832C130.372 62.9922 130.084 62.0645 130.084 61C130.084 59.0371 130.782 57.5283 132.179 56.4736C133.575 55.4092 135.978 54.877 139.386 54.877L143.106 54.9648C145.108 54.9648 146.91 55.4824 148.512 56.5176C150.123 57.543 150.929 58.8271 150.929 60.3701C150.929 60.9463 150.758 61.3613 150.416 61.6152C150.074 61.8691 149.747 61.9961 149.435 61.9961H147.691C146.812 61.9961 146.144 61.5176 145.685 60.5605C145.226 59.5938 144.195 59.1104 142.594 59.1104L138.185 59.0225C136.466 59.0225 135.606 59.584 135.606 60.707C135.606 61.3223 136.148 61.8252 137.232 62.2158C138.326 62.6064 139.645 62.9531 141.188 63.2559C142.74 63.5488 144.298 63.9053 145.86 64.3252C147.423 64.7451 148.746 65.4385 149.83 66.4053C150.924 67.3623 151.471 68.5586 151.471 69.9941C151.471 71.957 150.768 73.4707 149.361 74.5352C147.965 75.5898 145.567 76.1172 142.169 76.1172L137.73 76.0293C135.729 76.0293 133.922 75.5166 132.311 74.4912C130.699 73.4561 129.894 72.167 129.894 70.624Z"/>
</mask>
<path d="M129.894 70.624C129.894 70.0479 130.064 69.6377 130.406 69.3936C130.748 69.1396 131.08 69.0127 131.402 69.0127H133.146C134.024 69.0127 134.693 69.4912 135.152 70.4482C135.611 71.4053 136.642 71.8838 138.243 71.8838L143.37 71.9863C145.089 71.9863 145.948 71.4248 145.948 70.3018C145.948 69.4521 144.898 68.7832 142.799 68.2949C141.861 68.0703 140.826 67.8506 139.693 67.6357C138.561 67.4111 137.433 67.1328 136.31 66.8008C135.196 66.4688 134.171 66.0781 133.233 65.6289C132.296 65.1797 131.534 64.5645 130.948 63.7832C130.372 62.9922 130.084 62.0645 130.084 61C130.084 59.0371 130.782 57.5283 132.179 56.4736C133.575 55.4092 135.978 54.877 139.386 54.877L143.106 54.9648C145.108 54.9648 146.91 55.4824 148.512 56.5176C150.123 57.543 150.929 58.8271 150.929 60.3701C150.929 60.9463 150.758 61.3613 150.416 61.6152C150.074 61.8691 149.747 61.9961 149.435 61.9961H147.691C146.812 61.9961 146.144 61.5176 145.685 60.5605C145.226 59.5938 144.195 59.1104 142.594 59.1104L138.185 59.0225C136.466 59.0225 135.606 59.584 135.606 60.707C135.606 61.3223 136.148 61.8252 137.232 62.2158C138.326 62.6064 139.645 62.9531 141.188 63.2559C142.74 63.5488 144.298 63.9053 145.86 64.3252C147.423 64.7451 148.746 65.4385 149.83 66.4053C150.924 67.3623 151.471 68.5586 151.471 69.9941C151.471 71.957 150.768 73.4707 149.361 74.5352C147.965 75.5898 145.567 76.1172 142.169 76.1172L137.73 76.0293C135.729 76.0293 133.922 75.5166 132.311 74.4912C130.699 73.4561 129.894 72.167 129.894 70.624Z" fill="#BDFF2E"/>
<path d="M130.406 69.3936L130.987 70.2073L130.995 70.2019L131.003 70.1963L130.406 69.3936ZM138.243 71.8838L138.263 70.884L138.253 70.8838H138.243V71.8838ZM143.37 71.9863L143.35 72.9861L143.36 72.9863H143.37V71.9863ZM142.799 68.2949L142.566 69.2674L142.572 69.2689L142.799 68.2949ZM139.693 67.6357L139.499 68.6167L139.507 68.6182L139.693 67.6357ZM136.31 66.8008L136.024 67.7591L136.026 67.7597L136.31 66.8008ZM130.948 63.7832L130.14 64.372L130.148 64.3832L130.948 63.7832ZM132.179 56.4736L132.781 57.2716L132.785 57.2689L132.179 56.4736ZM139.386 54.877L139.409 53.8772L139.398 53.877H139.386V54.877ZM143.106 54.9648L143.083 55.9646L143.095 55.9648H143.106V54.9648ZM148.512 56.5176L147.969 57.3574L147.975 57.3612L148.512 56.5176ZM145.685 60.5605L144.781 60.9894L144.783 60.993L145.685 60.5605ZM142.594 59.1104L142.574 60.1102L142.584 60.1104H142.594V59.1104ZM138.185 59.0225L138.205 58.0227L138.195 58.0225H138.185V59.0225ZM137.232 62.2158L136.893 63.1566L136.896 63.1576L137.232 62.2158ZM141.188 63.2559L140.995 64.2372L141.002 64.2385L141.188 63.2559ZM149.83 66.4053L149.164 67.1516L149.172 67.1579L149.83 66.4053ZM149.361 74.5352L149.964 75.3331L149.965 75.3325L149.361 74.5352ZM142.169 76.1172L142.149 77.117L142.159 77.1172H142.169V76.1172ZM137.73 76.0293L137.75 75.0295L137.74 75.0293H137.73V76.0293ZM132.311 74.4912L131.77 75.3326L131.774 75.3349L132.311 74.4912ZM130.894 70.624C130.894 70.4306 130.923 70.3218 130.945 70.2689C130.963 70.2255 130.977 70.2146 130.987 70.2073L129.825 68.5798C129.13 69.0763 128.894 69.8549 128.894 70.624H130.894ZM131.003 70.1963C131.227 70.0295 131.355 70.0127 131.402 70.0127V68.0127C130.805 68.0127 130.269 68.2498 129.81 68.5908L131.003 70.1963ZM131.402 70.0127H133.146V68.0127H131.402V70.0127ZM133.146 70.0127C133.391 70.0127 133.572 70.0756 133.725 70.1849C133.888 70.3018 134.073 70.5111 134.251 70.8807L136.054 70.0158C135.772 69.4284 135.394 68.9199 134.888 68.5583C134.372 68.1891 133.778 68.0127 133.146 68.0127V70.0127ZM134.251 70.8807C134.954 72.3463 136.477 72.8838 138.243 72.8838V70.8838C136.807 70.8838 136.269 70.4642 136.054 70.0158L134.251 70.8807ZM138.223 72.8836L143.35 72.9861L143.39 70.9865L138.263 70.884L138.223 72.8836ZM143.37 72.9863C144.307 72.9863 145.182 72.8391 145.851 72.4023C146.593 71.9172 146.948 71.1633 146.948 70.3018H144.948C144.948 70.5633 144.874 70.6516 144.757 70.728C144.566 70.8527 144.152 70.9863 143.37 70.9863V72.9863ZM146.948 70.3018C146.948 69.3934 146.367 68.7455 145.698 68.3195C145.033 67.8954 144.117 67.5748 143.025 67.3209L142.572 69.2689C143.58 69.5033 144.239 69.7614 144.624 70.0062C144.81 70.1253 144.895 70.218 144.929 70.2671C144.944 70.2896 144.948 70.3011 144.948 70.3018C144.949 70.3025 144.948 70.3022 144.948 70.3013C144.948 70.3004 144.948 70.3004 144.948 70.3018H146.948ZM143.032 67.3224C142.076 67.0935 141.025 66.8705 139.88 66.6533L139.507 68.6182C140.627 68.8307 141.646 69.0471 142.566 69.2674L143.032 67.3224ZM139.888 66.6548C138.785 66.4363 137.687 66.1653 136.593 65.8418L136.026 67.7597C137.178 68.1003 138.336 68.386 139.499 68.6166L139.888 66.6548ZM136.595 65.8425C135.527 65.5237 134.551 65.1512 133.666 64.7271L132.801 66.5307C133.791 67.005 134.866 67.4138 136.024 67.7591L136.595 65.8425ZM133.666 64.7271C132.864 64.3428 132.231 63.8274 131.748 63.1832L130.148 64.3832C130.837 65.3015 131.728 66.0166 132.801 66.5307L133.666 64.7271ZM131.757 63.1944C131.316 62.5896 131.084 61.8724 131.084 61H129.084C129.084 62.2565 129.428 63.3947 130.14 64.372L131.757 63.1944ZM131.084 61C131.084 59.307 131.668 58.1124 132.781 57.2716L131.576 55.6756C129.896 56.9442 129.084 58.7673 129.084 61H131.084ZM132.785 57.2689C133.906 56.4143 136.021 55.877 139.386 55.877V53.877C135.934 53.877 133.244 54.4041 131.573 55.6783L132.785 57.2689ZM139.362 55.8767L143.083 55.9646L143.13 53.9651L139.409 53.8772L139.362 55.8767ZM143.106 55.9648C144.926 55.9648 146.537 56.4322 147.969 57.3574L149.055 55.6777C147.283 54.5327 145.291 53.9648 143.106 53.9648V55.9648ZM147.975 57.3612C149.376 58.2532 149.929 59.2529 149.929 60.3701H151.929C151.929 58.4014 150.87 56.8328 149.049 55.6739L147.975 57.3612ZM149.929 60.3701C149.929 60.7507 149.824 60.8092 149.82 60.8125L151.012 62.418C151.692 61.9135 151.929 61.1419 151.929 60.3701H149.929ZM149.82 60.8125C149.589 60.984 149.467 60.9961 149.435 60.9961V62.9961C150.028 62.9961 150.56 62.7543 151.012 62.418L149.82 60.8125ZM149.435 60.9961H147.691V62.9961H149.435V60.9961ZM147.691 60.9961C147.445 60.9961 147.265 60.9332 147.112 60.8239C146.949 60.707 146.763 60.4977 146.586 60.1281L144.783 60.993C145.065 61.5804 145.443 62.0889 145.949 62.4505C146.465 62.8197 147.058 62.9961 147.691 62.9961V60.9961ZM146.588 60.1317C145.887 58.6559 144.365 58.1104 142.594 58.1104V60.1104C144.025 60.1104 144.564 60.5316 144.781 60.9894L146.588 60.1317ZM142.614 58.1105L138.205 58.0227L138.165 60.0223L142.574 60.1102L142.614 58.1105ZM138.185 58.0225C137.248 58.0225 136.373 58.1696 135.704 58.6065C134.962 59.0916 134.606 59.8455 134.606 60.707H136.606C136.606 60.4455 136.681 60.3571 136.798 60.2807C136.989 60.156 137.402 60.0225 138.185 60.0225V58.0225ZM134.606 60.707C134.606 61.3483 134.902 61.8793 135.333 62.2787C135.742 62.6583 136.288 62.9384 136.893 63.1566L137.571 61.275C137.093 61.1026 136.826 60.936 136.693 60.8126C136.632 60.7557 136.612 60.7202 136.608 60.7112C136.605 60.706 136.606 60.7082 136.606 60.707H134.606ZM136.896 63.1576C138.05 63.5696 139.419 63.9279 140.995 64.2372L141.38 62.2746C139.87 61.9783 138.603 61.6433 137.569 61.2741L136.896 63.1576ZM141.002 64.2385C142.529 64.5267 144.062 64.8774 145.601 65.2909L146.12 63.3595C144.533 62.9331 142.951 62.571 141.373 62.2732L141.002 64.2385ZM145.601 65.2909C147.03 65.675 148.21 66.2999 149.164 67.1516L150.496 65.659C149.283 64.577 147.816 63.8152 146.12 63.3595L145.601 65.2909ZM149.172 67.1579C150.051 67.9277 150.471 68.851 150.471 69.9941H152.471C152.471 68.2662 151.796 66.7969 150.489 65.6527L149.172 67.1579ZM150.471 69.9941C150.471 71.6845 149.884 72.8856 148.758 73.7378L149.965 75.3325C151.652 74.0558 152.471 72.2296 152.471 69.9941H150.471ZM148.759 73.7372C147.636 74.5848 145.524 75.1172 142.169 75.1172V77.1172C145.611 77.1172 148.293 76.5949 149.964 75.3331L148.759 73.7372ZM142.189 75.1174L137.75 75.0295L137.711 77.0291L142.149 77.117L142.189 75.1174ZM137.73 75.0293C135.909 75.0293 134.29 74.5658 132.847 73.6475L131.774 75.3349C133.553 76.4674 135.548 77.0293 137.73 77.0293V75.0293ZM132.851 73.6499C131.447 72.7479 130.894 71.7423 130.894 70.624H128.894C128.894 72.5917 129.951 74.1642 131.77 75.3326L132.851 73.6499Z" fill="black" mask="url(#path-19-outside-10_389_1851)"/>
</svg>
