<svg width="311" height="42" viewBox="0 0 311 42" fill="none" xmlns="http://www.w3.org/2000/svg">
<mask id="path-1-outside-1_367_1333" maskUnits="userSpaceOnUse" x="1" y="9" width="24" height="24" fill="black">
<rect fill="white" x="1" y="9" width="24" height="24"/>
<path d="M2.09473 12.3857C2.09473 12.0049 2.23145 11.6777 2.50488 11.4043C2.77832 11.1309 3.10547 10.9941 3.48633 10.9941H15.3955C18.3154 10.9941 20.4688 11.834 21.8555 13.5137C22.627 14.4414 23.0127 15.6279 23.0127 17.0732C23.0127 18.5088 22.3535 19.7637 21.0352 20.8379C22.9102 21.8438 23.8477 23.4062 23.8477 25.5254C23.8477 27.6445 23.0957 29.2559 21.5918 30.3594C20.0977 31.4531 18.2617 32 16.084 32H3.48633C3.10547 32 2.77832 31.8682 2.50488 31.6045C2.23145 31.3311 2.09473 31.0039 2.09473 30.623V12.3857ZM7.61719 28.0449H15.9961C16.748 28.0449 17.3242 27.8203 17.7246 27.3711C18.125 26.9219 18.3252 26.3066 18.3252 25.5254C18.3252 24.7441 18.125 24.1289 17.7246 23.6797C17.3242 23.2305 16.748 23.0059 15.9961 23.0059H7.61719V28.0449ZM7.61719 19.1533H15.4541C16.0693 19.1533 16.5625 18.9727 16.9336 18.6113C17.3047 18.2402 17.4902 17.7275 17.4902 17.0732C17.4902 16.4092 17.3047 15.8916 16.9336 15.5205C16.5625 15.1494 16.0693 14.9639 15.4541 14.9639H7.61719V19.1533Z"/>
</mask>
<path d="M2.09473 12.3857C2.09473 12.0049 2.23145 11.6777 2.50488 11.4043C2.77832 11.1309 3.10547 10.9941 3.48633 10.9941H15.3955C18.3154 10.9941 20.4688 11.834 21.8555 13.5137C22.627 14.4414 23.0127 15.6279 23.0127 17.0732C23.0127 18.5088 22.3535 19.7637 21.0352 20.8379C22.9102 21.8438 23.8477 23.4062 23.8477 25.5254C23.8477 27.6445 23.0957 29.2559 21.5918 30.3594C20.0977 31.4531 18.2617 32 16.084 32H3.48633C3.10547 32 2.77832 31.8682 2.50488 31.6045C2.23145 31.3311 2.09473 31.0039 2.09473 30.623V12.3857ZM7.61719 28.0449H15.9961C16.748 28.0449 17.3242 27.8203 17.7246 27.3711C18.125 26.9219 18.3252 26.3066 18.3252 25.5254C18.3252 24.7441 18.125 24.1289 17.7246 23.6797C17.3242 23.2305 16.748 23.0059 15.9961 23.0059H7.61719V28.0449ZM7.61719 19.1533H15.4541C16.0693 19.1533 16.5625 18.9727 16.9336 18.6113C17.3047 18.2402 17.4902 17.7275 17.4902 17.0732C17.4902 16.4092 17.3047 15.8916 16.9336 15.5205C16.5625 15.1494 16.0693 14.9639 15.4541 14.9639H7.61719V19.1533Z" fill="#BDFF2E"/>
<path d="M21.8555 13.5137L21.0843 14.1503L21.0866 14.1531L21.8555 13.5137ZM21.0352 20.8379L20.4035 20.0627L19.2407 21.0101L20.5624 21.7191L21.0352 20.8379ZM21.5918 30.3594L22.1825 31.1663L22.1834 31.1656L21.5918 30.3594ZM2.50488 31.6045L1.79778 32.3116L1.8042 32.318L1.81075 32.3243L2.50488 31.6045ZM7.61719 28.0449H6.61719V29.0449H7.61719V28.0449ZM17.7246 23.6797L16.9781 24.3451L17.7246 23.6797ZM7.61719 23.0059V22.0059H6.61719V23.0059H7.61719ZM7.61719 19.1533H6.61719V20.1533H7.61719V19.1533ZM16.9336 18.6113L17.6313 19.3279L17.6407 19.3184L16.9336 18.6113ZM7.61719 14.9639V13.9639H6.61719V14.9639H7.61719ZM3.09473 12.3857C3.09473 12.2746 3.12286 12.2005 3.21199 12.1114L1.79778 10.6972C1.34003 11.1549 1.09473 11.7351 1.09473 12.3857H3.09473ZM3.21199 12.1114C3.30112 12.0223 3.37522 11.9941 3.48633 11.9941V9.99414C2.83572 9.99414 2.25552 10.2394 1.79778 10.6972L3.21199 12.1114ZM3.48633 11.9941H15.3955V9.99414H3.48633V11.9941ZM15.3955 11.9941C18.1252 11.9941 19.9471 12.7728 21.0843 14.1503L22.6266 12.877C20.9904 10.8951 18.5057 9.99414 15.3955 9.99414V11.9941ZM21.0866 14.1531C21.6806 14.8673 22.0127 15.8133 22.0127 17.0732H24.0127C24.0127 15.4425 23.5733 14.0155 22.6244 12.8743L21.0866 14.1531ZM22.0127 17.0732C22.0127 18.1514 21.5366 19.1394 20.4035 20.0627L21.6668 21.6131C23.1704 20.388 24.0127 18.8662 24.0127 17.0732H22.0127ZM20.5624 21.7191C21.3679 22.1512 21.9257 22.6764 22.287 23.2787C22.6482 23.8807 22.8477 24.6171 22.8477 25.5254H24.8477C24.8477 24.3145 24.5783 23.2102 24.002 22.2497C23.4259 21.2894 22.5774 20.5304 21.5079 19.9567L20.5624 21.7191ZM22.8477 25.5254C22.8477 27.3758 22.2097 28.6656 21.0002 29.5531L22.1834 31.1656C23.9817 29.8461 24.8477 27.9132 24.8477 25.5254H22.8477ZM21.0011 29.5525C19.7071 30.4997 18.0879 31 16.084 31V33C18.4355 33 20.4882 32.4065 22.1825 31.1663L21.0011 29.5525ZM16.084 31H3.48633V33H16.084V31ZM3.48633 31C3.36363 31 3.28552 30.9681 3.19902 30.8846L1.81075 32.3243C2.27112 32.7683 2.84731 33 3.48633 33V31ZM3.21199 30.8974C3.12286 30.8083 3.09473 30.7342 3.09473 30.623H1.09473C1.09473 31.2737 1.34003 31.8539 1.79778 32.3116L3.21199 30.8974ZM3.09473 30.623V12.3857H1.09473V30.623H3.09473ZM7.61719 29.0449H15.9961V27.0449H7.61719V29.0449ZM15.9961 29.0449C16.9566 29.0449 17.8354 28.7497 18.4711 28.0365L16.9781 26.7057C16.8131 26.8909 16.5395 27.0449 15.9961 27.0449V29.0449ZM18.4711 28.0365C19.0786 27.3549 19.3252 26.477 19.3252 25.5254H17.3252C17.3252 26.1363 17.1714 26.4889 16.9781 26.7057L18.4711 28.0365ZM19.3252 25.5254C19.3252 24.5738 19.0786 23.6959 18.4711 23.0143L16.9781 24.3451C17.1714 24.5619 17.3252 24.9145 17.3252 25.5254H19.3252ZM18.4711 23.0143C17.8354 22.301 16.9566 22.0059 15.9961 22.0059V24.0059C16.5395 24.0059 16.8131 24.1599 16.9781 24.3451L18.4711 23.0143ZM15.9961 22.0059H7.61719V24.0059H15.9961V22.0059ZM6.61719 23.0059V28.0449H8.61719V23.0059H6.61719ZM7.61719 20.1533H15.4541V18.1533H7.61719V20.1533ZM15.4541 20.1533C16.2776 20.1533 17.039 19.9044 17.6312 19.3278L16.236 17.8949C16.086 18.0409 15.8611 18.1533 15.4541 18.1533V20.1533ZM17.6407 19.3184C18.2432 18.716 18.4902 17.9236 18.4902 17.0732H16.4902C16.4902 17.5315 16.3662 17.7645 16.2265 17.9042L17.6407 19.3184ZM18.4902 17.0732C18.4902 16.218 18.2459 15.4186 17.6407 14.8134L16.2265 16.2276C16.3635 16.3646 16.4902 16.6004 16.4902 17.0732H18.4902ZM17.6407 14.8134C17.0499 14.2226 16.2853 13.9639 15.4541 13.9639V15.9639C15.8534 15.9639 16.0751 16.0762 16.2265 16.2276L17.6407 14.8134ZM15.4541 13.9639H7.61719V15.9639H15.4541V13.9639ZM6.61719 14.9639V19.1533H8.61719V14.9639H6.61719Z" fill="black" mask="url(#path-1-outside-1_367_1333)"/>
<mask id="path-3-outside-2_367_1333" maskUnits="userSpaceOnUse" x="34" y="9" width="22" height="24" fill="black">
<rect fill="white" x="34" y="9" width="22" height="24"/>
<path d="M35.0947 30.5938V12.3564C35.0947 11.9756 35.2314 11.6533 35.5049 11.3896C35.7783 11.126 36.1055 10.9941 36.4863 10.9941H53.376C53.7568 10.9941 54.0791 11.1309 54.3428 11.4043C54.6162 11.6777 54.7529 12.0049 54.7529 12.3857V13.7627C54.7529 14.1436 54.6162 14.4707 54.3428 14.7441C54.0791 15.0078 53.7568 15.1396 53.376 15.1396H40.6172V19.4023H51.6035C51.9844 19.4023 52.3066 19.5391 52.5703 19.8125C52.8438 20.0762 52.9805 20.3984 52.9805 20.7793V22.1562C52.9805 22.5371 52.8438 22.8643 52.5703 23.1377C52.3066 23.4014 51.9844 23.5332 51.6035 23.5332H40.6172V27.8545H53.3467C53.7178 27.8545 54.0352 27.9863 54.2988 28.25C54.5625 28.5137 54.6943 28.8359 54.6943 29.2168V30.623C54.6943 31.0039 54.5576 31.3311 54.2842 31.6045C54.0107 31.8682 53.6836 32 53.3027 32H36.4863C36.1055 32 35.7783 31.8682 35.5049 31.6045C35.2314 31.3311 35.0947 30.9941 35.0947 30.5938Z"/>
</mask>
<path d="M35.0947 30.5938V12.3564C35.0947 11.9756 35.2314 11.6533 35.5049 11.3896C35.7783 11.126 36.1055 10.9941 36.4863 10.9941H53.376C53.7568 10.9941 54.0791 11.1309 54.3428 11.4043C54.6162 11.6777 54.7529 12.0049 54.7529 12.3857V13.7627C54.7529 14.1436 54.6162 14.4707 54.3428 14.7441C54.0791 15.0078 53.7568 15.1396 53.376 15.1396H40.6172V19.4023H51.6035C51.9844 19.4023 52.3066 19.5391 52.5703 19.8125C52.8438 20.0762 52.9805 20.3984 52.9805 20.7793V22.1562C52.9805 22.5371 52.8438 22.8643 52.5703 23.1377C52.3066 23.4014 51.9844 23.5332 51.6035 23.5332H40.6172V27.8545H53.3467C53.7178 27.8545 54.0352 27.9863 54.2988 28.25C54.5625 28.5137 54.6943 28.8359 54.6943 29.2168V30.623C54.6943 31.0039 54.5576 31.3311 54.2842 31.6045C54.0107 31.8682 53.6836 32 53.3027 32H36.4863C36.1055 32 35.7783 31.8682 35.5049 31.6045C35.2314 31.3311 35.0947 30.9941 35.0947 30.5938Z" fill="#BDFF2E"/>
<path d="M54.3428 11.4043L53.6229 12.0984L53.6292 12.105L53.6357 12.1114L54.3428 11.4043ZM40.6172 15.1396V14.1396H39.6172V15.1396H40.6172ZM40.6172 19.4023H39.6172V20.4023H40.6172V19.4023ZM52.5703 19.8125L51.8505 20.5066L51.8631 20.5197L51.8762 20.5323L52.5703 19.8125ZM40.6172 23.5332V22.5332H39.6172V23.5332H40.6172ZM40.6172 27.8545H39.6172V28.8545H40.6172V27.8545ZM54.2842 31.6045L54.9783 32.3243L54.9849 32.318L54.9913 32.3116L54.2842 31.6045ZM35.5049 31.6045L34.7978 32.3116L34.8042 32.318L34.8107 32.3243L35.5049 31.6045ZM36.0947 30.5938V12.3564H34.0947V30.5938H36.0947ZM36.0947 12.3564C36.0947 12.2463 36.1216 12.1841 36.199 12.1095L34.8107 10.6698C34.3413 11.1225 34.0947 11.7049 34.0947 12.3564H36.0947ZM36.199 12.1095C36.2855 12.0261 36.3636 11.9941 36.4863 11.9941V9.99414C35.8473 9.99414 35.2711 10.2259 34.8107 10.6698L36.199 12.1095ZM36.4863 11.9941H53.376V9.99414H36.4863V11.9941ZM53.376 11.9941C53.4861 11.9941 53.5483 12.021 53.6229 12.0984L55.0626 10.7102C54.6099 10.2407 54.0275 9.99414 53.376 9.99414V11.9941ZM53.6357 12.1114C53.7248 12.2005 53.7529 12.2746 53.7529 12.3857H55.7529C55.7529 11.7351 55.5076 11.1549 55.0499 10.6972L53.6357 12.1114ZM53.7529 12.3857V13.7627H55.7529V12.3857H53.7529ZM53.7529 13.7627C53.7529 13.8738 53.7248 13.9479 53.6357 14.037L55.0499 15.4512C55.5076 14.9935 55.7529 14.4133 55.7529 13.7627H53.7529ZM53.6357 14.037C53.564 14.1087 53.498 14.1396 53.376 14.1396V16.1396C54.0157 16.1396 54.5942 15.9069 55.0499 15.4512L53.6357 14.037ZM53.376 14.1396H40.6172V16.1396H53.376V14.1396ZM39.6172 15.1396V19.4023H41.6172V15.1396H39.6172ZM40.6172 20.4023H51.6035V18.4023H40.6172V20.4023ZM51.6035 20.4023C51.7137 20.4023 51.7758 20.4292 51.8505 20.5066L53.2902 19.1184C52.8374 18.6489 52.2551 18.4023 51.6035 18.4023V20.4023ZM51.8762 20.5323C51.9536 20.607 51.9805 20.6691 51.9805 20.7793H53.9805C53.9805 20.1277 53.7339 19.5454 53.2644 19.0927L51.8762 20.5323ZM51.9805 20.7793V22.1562H53.9805V20.7793H51.9805ZM51.9805 22.1562C51.9805 22.2674 51.9523 22.3415 51.8632 22.4306L53.2774 23.8448C53.7352 23.3871 53.9805 22.8069 53.9805 22.1562H51.9805ZM51.8632 22.4306C51.7915 22.5023 51.7255 22.5332 51.6035 22.5332V24.5332C52.2432 24.5332 52.8218 24.3005 53.2774 23.8448L51.8632 22.4306ZM51.6035 22.5332H40.6172V24.5332H51.6035V22.5332ZM39.6172 23.5332V27.8545H41.6172V23.5332H39.6172ZM40.6172 28.8545H53.3467V26.8545H40.6172V28.8545ZM53.3467 28.8545C53.4511 28.8545 53.5146 28.8799 53.5917 28.9571L55.0059 27.5429C54.5557 27.0927 53.9844 26.8545 53.3467 26.8545V28.8545ZM53.5917 28.9571C53.6634 29.0288 53.6943 29.0948 53.6943 29.2168H55.6943C55.6943 28.5771 55.4616 27.9985 55.0059 27.5429L53.5917 28.9571ZM53.6943 29.2168V30.623H55.6943V29.2168H53.6943ZM53.6943 30.623C53.6943 30.7342 53.6662 30.8083 53.5771 30.8974L54.9913 32.3116C55.449 31.8539 55.6943 31.2737 55.6943 30.623H53.6943ZM53.59 30.8846C53.5035 30.9681 53.4254 31 53.3027 31V33C53.9418 33 54.5179 32.7683 54.9783 32.3243L53.59 30.8846ZM53.3027 31H36.4863V33H53.3027V31ZM36.4863 31C36.3636 31 36.2855 30.9681 36.199 30.8846L34.8107 32.3243C35.2711 32.7683 35.8473 33 36.4863 33V31ZM36.212 30.8974C36.1334 30.8188 36.0947 30.7394 36.0947 30.5938H34.0947C34.0947 31.2489 34.3295 31.8433 34.7978 32.3116L36.212 30.8974Z" fill="black" mask="url(#path-3-outside-2_367_1333)"/>
<mask id="path-5-outside-3_367_1333" maskUnits="userSpaceOnUse" x="65" y="9" width="22" height="24" fill="black">
<rect fill="white" x="65" y="9" width="22" height="24"/>
<path d="M66.0947 30.5938V12.3564C66.0947 11.9756 66.2314 11.6533 66.5049 11.3896C66.7783 11.126 67.1055 10.9941 67.4863 10.9941H84.376C84.7568 10.9941 85.0791 11.1309 85.3428 11.4043C85.6162 11.6777 85.7529 12.0049 85.7529 12.3857V13.7627C85.7529 14.1436 85.6162 14.4707 85.3428 14.7441C85.0791 15.0078 84.7568 15.1396 84.376 15.1396H71.6172V19.4023H82.6035C82.9844 19.4023 83.3066 19.5391 83.5703 19.8125C83.8438 20.0762 83.9805 20.3984 83.9805 20.7793V22.1562C83.9805 22.5371 83.8438 22.8643 83.5703 23.1377C83.3066 23.4014 82.9844 23.5332 82.6035 23.5332H71.6172V27.8545H84.3467C84.7178 27.8545 85.0352 27.9863 85.2988 28.25C85.5625 28.5137 85.6943 28.8359 85.6943 29.2168V30.623C85.6943 31.0039 85.5576 31.3311 85.2842 31.6045C85.0107 31.8682 84.6836 32 84.3027 32H67.4863C67.1055 32 66.7783 31.8682 66.5049 31.6045C66.2314 31.3311 66.0947 30.9941 66.0947 30.5938Z"/>
</mask>
<path d="M66.0947 30.5938V12.3564C66.0947 11.9756 66.2314 11.6533 66.5049 11.3896C66.7783 11.126 67.1055 10.9941 67.4863 10.9941H84.376C84.7568 10.9941 85.0791 11.1309 85.3428 11.4043C85.6162 11.6777 85.7529 12.0049 85.7529 12.3857V13.7627C85.7529 14.1436 85.6162 14.4707 85.3428 14.7441C85.0791 15.0078 84.7568 15.1396 84.376 15.1396H71.6172V19.4023H82.6035C82.9844 19.4023 83.3066 19.5391 83.5703 19.8125C83.8438 20.0762 83.9805 20.3984 83.9805 20.7793V22.1562C83.9805 22.5371 83.8438 22.8643 83.5703 23.1377C83.3066 23.4014 82.9844 23.5332 82.6035 23.5332H71.6172V27.8545H84.3467C84.7178 27.8545 85.0352 27.9863 85.2988 28.25C85.5625 28.5137 85.6943 28.8359 85.6943 29.2168V30.623C85.6943 31.0039 85.5576 31.3311 85.2842 31.6045C85.0107 31.8682 84.6836 32 84.3027 32H67.4863C67.1055 32 66.7783 31.8682 66.5049 31.6045C66.2314 31.3311 66.0947 30.9941 66.0947 30.5938Z" fill="#BDFF2E"/>
<path d="M85.3428 11.4043L84.6229 12.0984L84.6292 12.105L84.6357 12.1114L85.3428 11.4043ZM71.6172 15.1396V14.1396H70.6172V15.1396H71.6172ZM71.6172 19.4023H70.6172V20.4023H71.6172V19.4023ZM83.5703 19.8125L82.8505 20.5066L82.8631 20.5197L82.8762 20.5323L83.5703 19.8125ZM71.6172 23.5332V22.5332H70.6172V23.5332H71.6172ZM71.6172 27.8545H70.6172V28.8545H71.6172V27.8545ZM85.2842 31.6045L85.9783 32.3243L85.9849 32.318L85.9913 32.3116L85.2842 31.6045ZM66.5049 31.6045L65.7978 32.3116L65.8042 32.318L65.8107 32.3243L66.5049 31.6045ZM67.0947 30.5938V12.3564H65.0947V30.5938H67.0947ZM67.0947 12.3564C67.0947 12.2463 67.1216 12.1841 67.199 12.1095L65.8107 10.6698C65.3413 11.1225 65.0947 11.7049 65.0947 12.3564H67.0947ZM67.199 12.1095C67.2855 12.0261 67.3636 11.9941 67.4863 11.9941V9.99414C66.8473 9.99414 66.2711 10.2259 65.8107 10.6698L67.199 12.1095ZM67.4863 11.9941H84.376V9.99414H67.4863V11.9941ZM84.376 11.9941C84.4861 11.9941 84.5483 12.021 84.6229 12.0984L86.0626 10.7102C85.6099 10.2407 85.0275 9.99414 84.376 9.99414V11.9941ZM84.6357 12.1114C84.7248 12.2005 84.7529 12.2746 84.7529 12.3857H86.7529C86.7529 11.7351 86.5076 11.1549 86.0499 10.6972L84.6357 12.1114ZM84.7529 12.3857V13.7627H86.7529V12.3857H84.7529ZM84.7529 13.7627C84.7529 13.8738 84.7248 13.9479 84.6357 14.037L86.0499 15.4512C86.5076 14.9935 86.7529 14.4133 86.7529 13.7627H84.7529ZM84.6357 14.037C84.564 14.1087 84.498 14.1396 84.376 14.1396V16.1396C85.0157 16.1396 85.5942 15.9069 86.0499 15.4512L84.6357 14.037ZM84.376 14.1396H71.6172V16.1396H84.376V14.1396ZM70.6172 15.1396V19.4023H72.6172V15.1396H70.6172ZM71.6172 20.4023H82.6035V18.4023H71.6172V20.4023ZM82.6035 20.4023C82.7137 20.4023 82.7758 20.4292 82.8505 20.5066L84.2902 19.1184C83.8374 18.6489 83.2551 18.4023 82.6035 18.4023V20.4023ZM82.8762 20.5323C82.9536 20.607 82.9805 20.6691 82.9805 20.7793H84.9805C84.9805 20.1277 84.7339 19.5454 84.2644 19.0927L82.8762 20.5323ZM82.9805 20.7793V22.1562H84.9805V20.7793H82.9805ZM82.9805 22.1562C82.9805 22.2674 82.9523 22.3415 82.8632 22.4306L84.2774 23.8448C84.7352 23.3871 84.9805 22.8069 84.9805 22.1562H82.9805ZM82.8632 22.4306C82.7915 22.5023 82.7255 22.5332 82.6035 22.5332V24.5332C83.2432 24.5332 83.8218 24.3005 84.2774 23.8448L82.8632 22.4306ZM82.6035 22.5332H71.6172V24.5332H82.6035V22.5332ZM70.6172 23.5332V27.8545H72.6172V23.5332H70.6172ZM71.6172 28.8545H84.3467V26.8545H71.6172V28.8545ZM84.3467 28.8545C84.4511 28.8545 84.5146 28.8799 84.5917 28.9571L86.0059 27.5429C85.5557 27.0927 84.9844 26.8545 84.3467 26.8545V28.8545ZM84.5917 28.9571C84.6634 29.0288 84.6943 29.0948 84.6943 29.2168H86.6943C86.6943 28.5771 86.4616 27.9985 86.0059 27.5429L84.5917 28.9571ZM84.6943 29.2168V30.623H86.6943V29.2168H84.6943ZM84.6943 30.623C84.6943 30.7342 84.6662 30.8083 84.5771 30.8974L85.9913 32.3116C86.449 31.8539 86.6943 31.2737 86.6943 30.623H84.6943ZM84.59 30.8846C84.5035 30.9681 84.4254 31 84.3027 31V33C84.9418 33 85.5179 32.7683 85.9783 32.3243L84.59 30.8846ZM84.3027 31H67.4863V33H84.3027V31ZM67.4863 31C67.3636 31 67.2855 30.9681 67.199 30.8846L65.8107 32.3243C66.2711 32.7683 66.8473 33 67.4863 33V31ZM67.212 30.8974C67.1334 30.8188 67.0947 30.7394 67.0947 30.5938H65.0947C65.0947 31.2489 65.3295 31.8433 65.7978 32.3116L67.212 30.8974Z" fill="black" mask="url(#path-5-outside-3_367_1333)"/>
<mask id="path-7-outside-4_367_1333" maskUnits="userSpaceOnUse" x="95" y="9" width="9" height="12" fill="black">
<rect fill="white" x="95" y="9" width="9" height="12"/>
<path d="M96.4062 17.0879L98.1494 12.6787C98.3545 12.2002 98.6572 11.7998 99.0576 11.4775C99.4678 11.1553 99.9365 10.9941 100.464 10.9941H101.035C101.65 10.9941 102.056 11.1553 102.251 11.4775C102.456 11.7998 102.5 12.3027 102.383 12.9863L101.504 17.6885C101.426 18.1475 101.162 18.543 100.713 18.875C100.264 19.207 99.79 19.373 99.292 19.373H98.0908C97.3096 19.373 96.7627 19.168 96.4502 18.7578C96.1475 18.3477 96.1328 17.791 96.4062 17.0879Z"/>
</mask>
<path d="M96.4062 17.0879L98.1494 12.6787C98.3545 12.2002 98.6572 11.7998 99.0576 11.4775C99.4678 11.1553 99.9365 10.9941 100.464 10.9941H101.035C101.65 10.9941 102.056 11.1553 102.251 11.4775C102.456 11.7998 102.5 12.3027 102.383 12.9863L101.504 17.6885C101.426 18.1475 101.162 18.543 100.713 18.875C100.264 19.207 99.79 19.373 99.292 19.373H98.0908C97.3096 19.373 96.7627 19.168 96.4502 18.7578C96.1475 18.3477 96.1328 17.791 96.4062 17.0879Z" fill="#BDFF2E"/>
<path d="M96.4062 17.0879L95.4763 16.7202L95.4742 16.7254L96.4062 17.0879ZM98.1494 12.6787L97.2303 12.2848L97.2247 12.2978L97.2195 12.3111L98.1494 12.6787ZM99.0576 11.4775L98.4398 10.6912L98.4306 10.6985L99.0576 11.4775ZM102.251 11.4775L101.396 11.9958L101.401 12.0052L101.407 12.0144L102.251 11.4775ZM102.383 12.9863L103.366 13.1701L103.367 13.1627L103.368 13.1553L102.383 12.9863ZM101.504 17.6885L100.521 17.5047L100.519 17.5127L100.518 17.5207L101.504 17.6885ZM96.4502 18.7578L95.6456 19.3517L95.6501 19.3578L95.6548 19.3639L96.4502 18.7578ZM97.3362 17.4555L99.0794 13.0464L97.2195 12.3111L95.4763 16.7202L97.3362 17.4555ZM99.0686 13.0726C99.2101 12.7424 99.4133 12.4749 99.6846 12.2566L98.4306 10.6985C97.9011 11.1247 97.4989 11.658 97.2303 12.2848L99.0686 13.0726ZM99.6754 12.2639C99.9073 12.0817 100.158 11.9941 100.464 11.9941V9.99414C99.7151 9.99414 99.0282 10.2289 98.4398 10.6912L99.6754 12.2639ZM100.464 11.9941H101.035V9.99414H100.464V11.9941ZM101.035 11.9941C101.264 11.9941 101.384 12.0254 101.431 12.0442C101.465 12.0575 101.428 12.0493 101.396 11.9958L103.106 10.9592C102.636 10.1834 101.77 9.99414 101.035 9.99414V11.9941ZM101.407 12.0144C101.4 12.0035 101.429 12.0425 101.442 12.1835C101.454 12.3244 101.446 12.531 101.397 12.8174L103.368 13.1553C103.497 12.406 103.506 11.587 103.095 10.9407L101.407 12.0144ZM101.4 12.8026L100.521 17.5047L102.487 17.8722L103.366 13.1701L101.4 12.8026ZM100.518 17.5207C100.492 17.6755 100.404 17.8597 100.118 18.0708L101.307 19.6792C101.92 19.2262 102.36 18.6194 102.49 17.8563L100.518 17.5207ZM100.118 18.0708C99.8194 18.2919 99.5503 18.373 99.292 18.373V20.373C100.03 20.373 100.708 20.1222 101.307 19.6792L100.118 18.0708ZM99.292 18.373H98.0908V20.373H99.292V18.373ZM98.0908 18.373C97.4562 18.373 97.2873 18.2064 97.2456 18.1518L95.6548 19.3639C96.2381 20.1295 97.163 20.373 98.0908 20.373V18.373ZM97.2548 18.164C97.2422 18.1469 97.125 17.9988 97.3383 17.4503L95.4742 16.7254C95.1406 17.5833 95.0527 18.5484 95.6456 19.3517L97.2548 18.164Z" fill="black" mask="url(#path-7-outside-4_367_1333)"/>
<mask id="path-9-outside-5_367_1333" maskUnits="userSpaceOnUse" x="111" y="9" width="25" height="25" fill="black">
<rect fill="white" x="111" y="9" width="25" height="25"/>
<path d="M112.894 26.624C112.894 26.0479 113.064 25.6377 113.406 25.3936C113.748 25.1396 114.08 25.0127 114.402 25.0127H116.146C117.024 25.0127 117.693 25.4912 118.152 26.4482C118.611 27.4053 119.642 27.8838 121.243 27.8838L126.37 27.9863C128.089 27.9863 128.948 27.4248 128.948 26.3018C128.948 25.4521 127.898 24.7832 125.799 24.2949C124.861 24.0703 123.826 23.8506 122.693 23.6357C121.561 23.4111 120.433 23.1328 119.31 22.8008C118.196 22.4688 117.171 22.0781 116.233 21.6289C115.296 21.1797 114.534 20.5645 113.948 19.7832C113.372 18.9922 113.084 18.0645 113.084 17C113.084 15.0371 113.782 13.5283 115.179 12.4736C116.575 11.4092 118.978 10.877 122.386 10.877L126.106 10.9648C128.108 10.9648 129.91 11.4824 131.512 12.5176C133.123 13.543 133.929 14.8271 133.929 16.3701C133.929 16.9463 133.758 17.3613 133.416 17.6152C133.074 17.8691 132.747 17.9961 132.435 17.9961H130.691C129.812 17.9961 129.144 17.5176 128.685 16.5605C128.226 15.5938 127.195 15.1104 125.594 15.1104L121.185 15.0225C119.466 15.0225 118.606 15.584 118.606 16.707C118.606 17.3223 119.148 17.8252 120.232 18.2158C121.326 18.6064 122.645 18.9531 124.188 19.2559C125.74 19.5488 127.298 19.9053 128.86 20.3252C130.423 20.7451 131.746 21.4385 132.83 22.4053C133.924 23.3623 134.471 24.5586 134.471 25.9941C134.471 27.957 133.768 29.4707 132.361 30.5352C130.965 31.5898 128.567 32.1172 125.169 32.1172L120.73 32.0293C118.729 32.0293 116.922 31.5166 115.311 30.4912C113.699 29.4561 112.894 28.167 112.894 26.624Z"/>
</mask>
<path d="M112.894 26.624C112.894 26.0479 113.064 25.6377 113.406 25.3936C113.748 25.1396 114.08 25.0127 114.402 25.0127H116.146C117.024 25.0127 117.693 25.4912 118.152 26.4482C118.611 27.4053 119.642 27.8838 121.243 27.8838L126.37 27.9863C128.089 27.9863 128.948 27.4248 128.948 26.3018C128.948 25.4521 127.898 24.7832 125.799 24.2949C124.861 24.0703 123.826 23.8506 122.693 23.6357C121.561 23.4111 120.433 23.1328 119.31 22.8008C118.196 22.4688 117.171 22.0781 116.233 21.6289C115.296 21.1797 114.534 20.5645 113.948 19.7832C113.372 18.9922 113.084 18.0645 113.084 17C113.084 15.0371 113.782 13.5283 115.179 12.4736C116.575 11.4092 118.978 10.877 122.386 10.877L126.106 10.9648C128.108 10.9648 129.91 11.4824 131.512 12.5176C133.123 13.543 133.929 14.8271 133.929 16.3701C133.929 16.9463 133.758 17.3613 133.416 17.6152C133.074 17.8691 132.747 17.9961 132.435 17.9961H130.691C129.812 17.9961 129.144 17.5176 128.685 16.5605C128.226 15.5938 127.195 15.1104 125.594 15.1104L121.185 15.0225C119.466 15.0225 118.606 15.584 118.606 16.707C118.606 17.3223 119.148 17.8252 120.232 18.2158C121.326 18.6064 122.645 18.9531 124.188 19.2559C125.74 19.5488 127.298 19.9053 128.86 20.3252C130.423 20.7451 131.746 21.4385 132.83 22.4053C133.924 23.3623 134.471 24.5586 134.471 25.9941C134.471 27.957 133.768 29.4707 132.361 30.5352C130.965 31.5898 128.567 32.1172 125.169 32.1172L120.73 32.0293C118.729 32.0293 116.922 31.5166 115.311 30.4912C113.699 29.4561 112.894 28.167 112.894 26.624Z" fill="#BDFF2E"/>
<path d="M113.406 25.3936L113.987 26.2073L113.995 26.2019L114.003 26.1963L113.406 25.3936ZM121.243 27.8838L121.263 26.884L121.253 26.8838H121.243V27.8838ZM126.37 27.9863L126.35 28.9861L126.36 28.9863H126.37V27.9863ZM125.799 24.2949L125.566 25.2674L125.572 25.2689L125.799 24.2949ZM122.693 23.6357L122.499 24.6167L122.507 24.6182L122.693 23.6357ZM119.31 22.8008L119.024 23.7591L119.026 23.7597L119.31 22.8008ZM113.948 19.7832L113.14 20.372L113.148 20.3832L113.948 19.7832ZM115.179 12.4736L115.781 13.2716L115.785 13.2689L115.179 12.4736ZM122.386 10.877L122.409 9.87723L122.398 9.87695H122.386V10.877ZM126.106 10.9648L126.083 11.9646L126.095 11.9648H126.106V10.9648ZM131.512 12.5176L130.969 13.3574L130.975 13.3612L131.512 12.5176ZM128.685 16.5605L127.781 16.9894L127.783 16.993L128.685 16.5605ZM125.594 15.1104L125.574 16.1102L125.584 16.1104H125.594V15.1104ZM121.185 15.0225L121.205 14.0227L121.195 14.0225H121.185V15.0225ZM120.232 18.2158L119.893 19.1566L119.896 19.1576L120.232 18.2158ZM124.188 19.2559L123.995 20.2372L124.002 20.2385L124.188 19.2559ZM132.83 22.4053L132.164 23.1516L132.172 23.1579L132.83 22.4053ZM132.361 30.5352L132.964 31.3331L132.965 31.3325L132.361 30.5352ZM125.169 32.1172L125.149 33.117L125.159 33.1172H125.169V32.1172ZM120.73 32.0293L120.75 31.0295L120.74 31.0293H120.73V32.0293ZM115.311 30.4912L114.77 31.3326L114.774 31.3349L115.311 30.4912ZM113.894 26.624C113.894 26.4306 113.923 26.3218 113.945 26.2689C113.963 26.2255 113.977 26.2146 113.987 26.2073L112.825 24.5798C112.13 25.0763 111.894 25.8549 111.894 26.624H113.894ZM114.003 26.1963C114.227 26.0295 114.355 26.0127 114.402 26.0127V24.0127C113.805 24.0127 113.269 24.2498 112.81 24.5908L114.003 26.1963ZM114.402 26.0127H116.146V24.0127H114.402V26.0127ZM116.146 26.0127C116.391 26.0127 116.572 26.0756 116.725 26.1849C116.888 26.3018 117.073 26.5111 117.251 26.8807L119.054 26.0158C118.772 25.4284 118.394 24.9199 117.888 24.5583C117.372 24.1891 116.778 24.0127 116.146 24.0127V26.0127ZM117.251 26.8807C117.954 28.3463 119.477 28.8838 121.243 28.8838V26.8838C119.807 26.8838 119.269 26.4642 119.054 26.0158L117.251 26.8807ZM121.223 28.8836L126.35 28.9861L126.39 26.9865L121.263 26.884L121.223 28.8836ZM126.37 28.9863C127.307 28.9863 128.182 28.8391 128.851 28.4023C129.593 27.9172 129.948 27.1633 129.948 26.3018H127.948C127.948 26.5633 127.874 26.6516 127.757 26.728C127.566 26.8527 127.152 26.9863 126.37 26.9863V28.9863ZM129.948 26.3018C129.948 25.3934 129.367 24.7455 128.698 24.3195C128.033 23.8954 127.117 23.5748 126.025 23.3209L125.572 25.2689C126.58 25.5033 127.239 25.7614 127.624 26.0062C127.81 26.1253 127.895 26.218 127.929 26.2671C127.944 26.2896 127.948 26.3011 127.948 26.3018C127.949 26.3025 127.948 26.3022 127.948 26.3013C127.948 26.3004 127.948 26.3004 127.948 26.3018H129.948ZM126.032 23.3224C125.076 23.0935 124.025 22.8705 122.88 22.6533L122.507 24.6182C123.627 24.8307 124.646 25.0471 125.566 25.2674L126.032 23.3224ZM122.888 22.6548C121.785 22.4363 120.687 22.1653 119.593 21.8418L119.026 23.7597C120.178 24.1003 121.336 24.386 122.499 24.6166L122.888 22.6548ZM119.595 21.8425C118.527 21.5237 117.551 21.1512 116.666 20.7271L115.801 22.5307C116.791 23.005 117.866 23.4138 119.024 23.7591L119.595 21.8425ZM116.666 20.7271C115.864 20.3428 115.231 19.8274 114.748 19.1832L113.148 20.3832C113.837 21.3015 114.728 22.0166 115.801 22.5307L116.666 20.7271ZM114.757 19.1944C114.316 18.5896 114.084 17.8724 114.084 17H112.084C112.084 18.2565 112.428 19.3947 113.14 20.372L114.757 19.1944ZM114.084 17C114.084 15.307 114.668 14.1124 115.781 13.2716L114.576 11.6756C112.896 12.9442 112.084 14.7673 112.084 17H114.084ZM115.785 13.2689C116.906 12.4143 119.021 11.877 122.386 11.877V9.87695C118.934 9.87695 116.244 10.4041 114.573 11.6783L115.785 13.2689ZM122.362 11.8767L126.083 11.9646L126.13 9.96512L122.409 9.87723L122.362 11.8767ZM126.106 11.9648C127.926 11.9648 129.537 12.4322 130.969 13.3574L132.055 11.6777C130.283 10.5327 128.291 9.96484 126.106 9.96484V11.9648ZM130.975 13.3612C132.376 14.2532 132.929 15.2529 132.929 16.3701H134.929C134.929 14.4014 133.87 12.8328 132.049 11.6739L130.975 13.3612ZM132.929 16.3701C132.929 16.7507 132.824 16.8092 132.82 16.8125L134.012 18.418C134.692 17.9135 134.929 17.1419 134.929 16.3701H132.929ZM132.82 16.8125C132.589 16.984 132.467 16.9961 132.435 16.9961V18.9961C133.028 18.9961 133.56 18.7543 134.012 18.418L132.82 16.8125ZM132.435 16.9961H130.691V18.9961H132.435V16.9961ZM130.691 16.9961C130.445 16.9961 130.265 16.9332 130.112 16.8239C129.949 16.707 129.763 16.4977 129.586 16.1281L127.783 16.993C128.065 17.5804 128.443 18.0889 128.949 18.4505C129.465 18.8197 130.058 18.9961 130.691 18.9961V16.9961ZM129.588 16.1317C128.887 14.6559 127.365 14.1104 125.594 14.1104V16.1104C127.025 16.1104 127.564 16.5316 127.781 16.9894L129.588 16.1317ZM125.614 14.1105L121.205 14.0227L121.165 16.0223L125.574 16.1102L125.614 14.1105ZM121.185 14.0225C120.248 14.0225 119.373 14.1696 118.704 14.6065C117.962 15.0916 117.606 15.8455 117.606 16.707H119.606C119.606 16.4455 119.681 16.3571 119.798 16.2807C119.989 16.156 120.402 16.0225 121.185 16.0225V14.0225ZM117.606 16.707C117.606 17.3483 117.902 17.8793 118.333 18.2787C118.742 18.6583 119.288 18.9384 119.893 19.1566L120.571 17.275C120.093 17.1026 119.826 16.936 119.693 16.8126C119.632 16.7557 119.612 16.7202 119.608 16.7112C119.605 16.706 119.606 16.7082 119.606 16.707H117.606ZM119.896 19.1576C121.05 19.5696 122.419 19.9279 123.995 20.2372L124.38 18.2746C122.87 17.9783 121.603 17.6433 120.569 17.2741L119.896 19.1576ZM124.002 20.2385C125.529 20.5267 127.062 20.8774 128.601 21.2909L129.12 19.3595C127.533 18.9331 125.951 18.571 124.373 18.2732L124.002 20.2385ZM128.601 21.2909C130.03 21.675 131.21 22.2999 132.164 23.1516L133.496 21.659C132.283 20.577 130.816 19.8152 129.12 19.3595L128.601 21.2909ZM132.172 23.1579C133.051 23.9277 133.471 24.851 133.471 25.9941H135.471C135.471 24.2662 134.796 22.7969 133.489 21.6527L132.172 23.1579ZM133.471 25.9941C133.471 27.6845 132.884 28.8856 131.758 29.7378L132.965 31.3325C134.652 30.0558 135.471 28.2296 135.471 25.9941H133.471ZM131.759 29.7372C130.636 30.5848 128.524 31.1172 125.169 31.1172V33.1172C128.611 33.1172 131.293 32.5949 132.964 31.3331L131.759 29.7372ZM125.189 31.1174L120.75 31.0295L120.711 33.0291L125.149 33.117L125.189 31.1174ZM120.73 31.0293C118.909 31.0293 117.29 30.5658 115.847 29.6475L114.774 31.3349C116.553 32.4674 118.548 33.0293 120.73 33.0293V31.0293ZM115.851 29.6499C114.447 28.7479 113.894 27.7423 113.894 26.624H111.894C111.894 28.5917 112.951 30.1642 114.77 31.3326L115.851 29.6499Z" fill="black" mask="url(#path-9-outside-5_367_1333)"/>
<mask id="path-11-outside-6_367_1333" maskUnits="userSpaceOnUse" x="159" y="9" width="24" height="24" fill="black">
<rect fill="white" x="159" y="9" width="24" height="24"/>
<path d="M181.833 31.3555C181.833 31.7852 181.579 32 181.071 32H177.717C177.336 32 176.926 31.8682 176.486 31.6045C176.047 31.3311 175.705 31.0039 175.461 30.623L172.883 26.5361C172.268 25.54 171.647 24.793 171.022 24.2949C170.397 23.7871 169.646 23.5332 168.767 23.5332H165.617V30.6523C165.617 31.0332 165.48 31.3555 165.207 31.6191C164.943 31.873 164.621 32 164.24 32H161.486C161.105 32 160.778 31.8633 160.505 31.5898C160.231 31.3066 160.095 30.9746 160.095 30.5938V12.3857C160.095 12.0049 160.231 11.6729 160.505 11.3896C160.778 11.1064 161.105 10.9648 161.486 10.9648H164.24C164.621 10.9648 164.943 11.1064 165.207 11.3896C165.48 11.6729 165.617 12.0049 165.617 12.3857V19.4023H168.767C169.626 19.4023 170.378 19.168 171.022 18.6992C171.677 18.2305 172.297 17.4736 172.883 16.4287L175.153 12.3857C175.671 11.4482 176.374 10.9746 177.263 10.9648H180.646C181.115 10.9648 181.35 11.1699 181.35 11.5801C181.35 11.8047 181.267 12.0732 181.101 12.3857L177.922 18.1426C177.463 18.9824 176.945 19.6758 176.369 20.2227C175.803 20.7695 175.061 21.1553 174.143 21.3799C174.787 21.5166 175.446 21.9219 176.12 22.5957C176.804 23.2695 177.404 24.002 177.922 24.793L181.584 30.623C181.75 30.9062 181.833 31.1504 181.833 31.3555Z"/>
</mask>
<path d="M181.833 31.3555C181.833 31.7852 181.579 32 181.071 32H177.717C177.336 32 176.926 31.8682 176.486 31.6045C176.047 31.3311 175.705 31.0039 175.461 30.623L172.883 26.5361C172.268 25.54 171.647 24.793 171.022 24.2949C170.397 23.7871 169.646 23.5332 168.767 23.5332H165.617V30.6523C165.617 31.0332 165.48 31.3555 165.207 31.6191C164.943 31.873 164.621 32 164.24 32H161.486C161.105 32 160.778 31.8633 160.505 31.5898C160.231 31.3066 160.095 30.9746 160.095 30.5938V12.3857C160.095 12.0049 160.231 11.6729 160.505 11.3896C160.778 11.1064 161.105 10.9648 161.486 10.9648H164.24C164.621 10.9648 164.943 11.1064 165.207 11.3896C165.48 11.6729 165.617 12.0049 165.617 12.3857V19.4023H168.767C169.626 19.4023 170.378 19.168 171.022 18.6992C171.677 18.2305 172.297 17.4736 172.883 16.4287L175.153 12.3857C175.671 11.4482 176.374 10.9746 177.263 10.9648H180.646C181.115 10.9648 181.35 11.1699 181.35 11.5801C181.35 11.8047 181.267 12.0732 181.101 12.3857L177.922 18.1426C177.463 18.9824 176.945 19.6758 176.369 20.2227C175.803 20.7695 175.061 21.1553 174.143 21.3799C174.787 21.5166 175.446 21.9219 176.12 22.5957C176.804 23.2695 177.404 24.002 177.922 24.793L181.584 30.623C181.75 30.9062 181.833 31.1504 181.833 31.3555Z" fill="#BDFF2E"/>
<path d="M176.486 31.6045L175.958 32.4535L175.965 32.4578L175.972 32.462L176.486 31.6045ZM175.461 30.623L174.615 31.1566L174.619 31.1627L175.461 30.623ZM172.883 26.5361L172.032 27.0616L172.037 27.0697L172.883 26.5361ZM171.022 24.2949L170.392 25.0711L170.399 25.077L171.022 24.2949ZM165.617 23.5332V22.5332H164.617V23.5332H165.617ZM165.207 31.6191L165.901 32.3395L165.901 32.339L165.207 31.6191ZM160.505 31.5898L159.785 32.2844L159.792 32.2907L159.798 32.297L160.505 31.5898ZM165.207 11.3896L164.475 12.0711L164.481 12.0777L164.488 12.0842L165.207 11.3896ZM165.617 19.4023H164.617V20.4023H165.617V19.4023ZM171.022 18.6992L170.44 17.8863L170.434 17.8905L171.022 18.6992ZM172.883 16.4287L172.011 15.939L172.011 15.9396L172.883 16.4287ZM175.153 12.3857L176.025 12.8754L176.029 12.8691L175.153 12.3857ZM177.263 10.9648V9.96478L177.252 9.9649L177.263 10.9648ZM181.101 12.3857L181.976 12.8691L181.98 12.862L181.984 12.8549L181.101 12.3857ZM177.922 18.1426L177.046 17.6592L177.044 17.663L177.922 18.1426ZM176.369 20.2227L175.681 19.4973L175.675 19.5033L176.369 20.2227ZM174.143 21.3799L173.905 20.4085L173.935 22.3581L174.143 21.3799ZM176.12 22.5957L175.413 23.3028L175.418 23.3079L176.12 22.5957ZM177.922 24.793L178.769 24.2611L178.764 24.2532L178.759 24.2454L177.922 24.793ZM181.584 30.623L182.447 30.1173L182.439 30.1041L182.431 30.0911L181.584 30.623ZM180.833 31.3555C180.833 31.3666 180.831 31.3314 180.855 31.2709C180.881 31.2043 180.929 31.133 180.997 31.0755C181.124 30.9676 181.208 31 181.071 31V33C181.442 33 181.907 32.925 182.289 32.6023C182.702 32.2524 182.833 31.7723 182.833 31.3555H180.833ZM181.071 31H177.717V33H181.071V31ZM177.717 31C177.569 31 177.337 30.9486 177.001 30.747L175.972 32.462C176.515 32.7877 177.102 33 177.717 33V31ZM177.015 30.7554C176.683 30.5492 176.456 30.3222 176.303 30.0834L174.619 31.1627C174.954 31.6856 175.411 32.1129 175.958 32.4535L177.015 30.7554ZM176.307 30.0895L173.729 26.0026L172.037 27.0697L174.615 31.1566L176.307 30.0895ZM173.734 26.0106C173.083 24.9579 172.392 24.1078 171.646 23.5129L170.399 25.077C170.903 25.4782 171.452 26.1222 172.032 27.0616L173.734 26.0106ZM171.653 23.5188C170.833 22.8526 169.853 22.5332 168.767 22.5332V24.5332C169.438 24.5332 169.962 24.7216 170.392 25.071L171.653 23.5188ZM168.767 22.5332H165.617V24.5332H168.767V22.5332ZM164.617 23.5332V30.6523H166.617V23.5332H164.617ZM164.617 30.6523C164.617 30.7625 164.59 30.8247 164.513 30.8993L165.901 32.339C166.371 31.8863 166.617 31.3039 166.617 30.6523H164.617ZM164.513 30.8988C164.444 30.9654 164.374 31 164.24 31V33C164.868 33 165.442 32.7807 165.901 32.3395L164.513 30.8988ZM164.24 31H161.486V33H164.24V31ZM161.486 31C161.375 31 161.301 30.9719 161.212 30.8827L159.798 32.297C160.256 32.7547 160.836 33 161.486 33V31ZM161.224 30.8952C161.124 30.7915 161.095 30.7059 161.095 30.5938H159.095C159.095 31.2433 159.339 31.8218 159.785 32.2844L161.224 30.8952ZM161.095 30.5938V12.3857H159.095V30.5938H161.095ZM161.095 12.3857C161.095 12.2736 161.124 12.188 161.224 12.0842L159.785 10.6951C159.339 11.1577 159.095 11.7362 159.095 12.3857H161.095ZM161.224 12.0842C161.316 11.9888 161.387 11.9648 161.486 11.9648V9.96484C160.824 9.96484 160.24 10.2241 159.785 10.6951L161.224 12.0842ZM161.486 11.9648H164.24V9.96484H161.486V11.9648ZM164.24 11.9648C164.338 11.9648 164.397 11.9874 164.475 12.0711L165.939 10.7082C165.49 10.2255 164.904 9.96484 164.24 9.96484V11.9648ZM164.488 12.0842C164.588 12.188 164.617 12.2736 164.617 12.3857H166.617C166.617 11.7362 166.373 11.1577 165.926 10.6951L164.488 12.0842ZM164.617 12.3857V19.4023H166.617V12.3857H164.617ZM165.617 20.4023H168.767V18.4023H165.617V20.4023ZM168.767 20.4023C169.82 20.4023 170.782 20.1109 171.611 19.508L170.434 17.8905C169.974 18.225 169.432 18.4023 168.767 18.4023V20.4023ZM171.605 19.5121C172.422 18.9267 173.129 18.0335 173.755 16.9178L172.011 15.9396C171.464 16.9138 170.931 17.5343 170.44 17.8863L171.605 19.5121ZM173.755 16.9184L176.025 12.8754L174.281 11.8961L172.011 15.939L173.755 16.9184ZM176.029 12.8691C176.414 12.1704 176.825 11.9697 177.274 11.9648L177.252 9.9649C175.923 9.9795 174.927 10.7261 174.278 11.9024L176.029 12.8691ZM177.263 11.9648H180.646V9.96484H177.263V11.9648ZM180.646 11.9648C180.757 11.9648 180.653 11.9919 180.515 11.8712C180.444 11.8087 180.397 11.7338 180.371 11.6669C180.348 11.606 180.35 11.5704 180.35 11.5801H182.35C182.35 11.1836 182.23 10.7142 181.832 10.3661C181.46 10.0403 181.005 9.96484 180.646 9.96484V11.9648ZM180.35 11.5801C180.35 11.5708 180.351 11.5931 180.332 11.6546C180.313 11.7158 180.278 11.8023 180.217 11.9166L181.984 12.8549C182.187 12.4729 182.35 12.0361 182.35 11.5801H180.35ZM180.225 11.9024L177.046 17.6592L178.797 18.6259L181.976 12.8691L180.225 11.9024ZM177.044 17.663C176.625 18.4297 176.168 19.035 175.681 19.4974L177.058 20.948C177.723 20.3166 178.3 19.5352 178.799 18.6221L177.044 17.663ZM175.675 19.5033C175.259 19.9047 174.685 20.2176 173.905 20.4085L174.38 22.3512C175.436 22.093 176.347 21.6344 177.064 20.9421L175.675 19.5033ZM173.935 22.3581C174.324 22.4405 174.818 22.7078 175.413 23.3028L176.827 21.8886C176.075 21.1359 175.251 20.5927 174.35 20.4016L173.935 22.3581ZM175.418 23.3079C176.052 23.9325 176.607 24.6099 177.085 25.3405L178.759 24.2454C178.202 23.394 177.556 22.6065 176.822 21.8835L175.418 23.3079ZM177.075 25.3249L180.737 31.155L182.431 30.0911L178.769 24.2611L177.075 25.3249ZM180.721 31.1288C180.779 31.227 180.809 31.2969 180.824 31.3405C180.839 31.3844 180.833 31.3864 180.833 31.3555H182.833C182.833 30.8961 182.654 30.4707 182.447 30.1173L180.721 31.1288Z" fill="black" mask="url(#path-11-outside-6_367_1333)"/>
<mask id="path-13-outside-7_367_1333" maskUnits="userSpaceOnUse" x="191" y="9" width="24" height="24" fill="black">
<rect fill="white" x="191" y="9" width="24" height="24"/>
<path d="M192.095 30.623V12.3857C192.095 12.0049 192.227 11.6777 192.49 11.4043C192.754 11.1309 193.076 10.9941 193.457 10.9941H197.764C198.105 10.9941 198.467 11.1309 198.848 11.4043C199.229 11.6777 199.541 12.0049 199.785 12.3857L208.633 25.9941V12.3564C208.633 11.9756 208.765 11.6533 209.028 11.3896C209.302 11.126 209.629 10.9941 210.01 10.9941H212.529C212.91 10.9941 213.232 11.126 213.496 11.3896C213.77 11.6533 213.906 11.9854 213.906 12.3857V30.623C213.906 31.0039 213.77 31.3311 213.496 31.6045C213.232 31.8682 212.91 32 212.529 32H207.666C207.285 32 206.895 31.8682 206.494 31.6045C206.094 31.3311 205.776 31.0039 205.542 30.623L197.441 18.0547V30.623C197.441 31.0039 197.305 31.3311 197.031 31.6045C196.768 31.8682 196.445 32 196.064 32H193.486C193.105 32 192.778 31.8682 192.505 31.6045C192.231 31.3311 192.095 31.0039 192.095 30.623Z"/>
</mask>
<path d="M192.095 30.623V12.3857C192.095 12.0049 192.227 11.6777 192.49 11.4043C192.754 11.1309 193.076 10.9941 193.457 10.9941H197.764C198.105 10.9941 198.467 11.1309 198.848 11.4043C199.229 11.6777 199.541 12.0049 199.785 12.3857L208.633 25.9941V12.3564C208.633 11.9756 208.765 11.6533 209.028 11.3896C209.302 11.126 209.629 10.9941 210.01 10.9941H212.529C212.91 10.9941 213.232 11.126 213.496 11.3896C213.77 11.6533 213.906 11.9854 213.906 12.3857V30.623C213.906 31.0039 213.77 31.3311 213.496 31.6045C213.232 31.8682 212.91 32 212.529 32H207.666C207.285 32 206.895 31.8682 206.494 31.6045C206.094 31.3311 205.776 31.0039 205.542 30.623L197.441 18.0547V30.623C197.441 31.0039 197.305 31.3311 197.031 31.6045C196.768 31.8682 196.445 32 196.064 32H193.486C193.105 32 192.778 31.8682 192.505 31.6045C192.231 31.3311 192.095 31.0039 192.095 30.623Z" fill="#BDFF2E"/>
<path d="M199.785 12.3857L198.943 12.9254L198.947 12.9308L199.785 12.3857ZM208.633 25.9941L207.794 26.5392L209.633 29.3668V25.9941H208.633ZM209.028 11.3896L208.334 10.6698L208.328 10.6761L208.321 10.6825L209.028 11.3896ZM213.496 11.3896L212.789 12.0968L212.795 12.1032L212.802 12.1095L213.496 11.3896ZM206.494 31.6045L205.93 32.4303L205.937 32.435L205.944 32.4397L206.494 31.6045ZM205.542 30.623L206.394 30.0989L206.388 30.0901L206.383 30.0813L205.542 30.623ZM197.441 18.0547L198.282 17.5129L196.441 14.6573V18.0547H197.441ZM192.505 31.6045L191.798 32.3116L191.804 32.318L191.811 32.3243L192.505 31.6045ZM193.095 30.623V12.3857H191.095V30.623H193.095ZM193.095 12.3857C193.095 12.263 193.127 12.1849 193.21 12.0984L191.77 10.7102C191.326 11.1705 191.095 11.7467 191.095 12.3857H193.095ZM193.21 12.0984C193.285 12.021 193.347 11.9941 193.457 11.9941V9.99414C192.805 9.99414 192.223 10.2407 191.77 10.7102L193.21 12.0984ZM193.457 11.9941H197.764V9.99414H193.457V11.9941ZM197.764 11.9941C197.831 11.9941 197.992 12.0208 198.264 12.2166L199.431 10.592C198.942 10.2409 198.38 9.99414 197.764 9.99414V11.9941ZM198.264 12.2166C198.546 12.4191 198.77 12.6548 198.943 12.9254L200.627 11.8461C200.312 11.3549 199.911 10.9364 199.431 10.592L198.264 12.2166ZM198.947 12.9308L207.794 26.5392L209.471 25.4491L200.624 11.8407L198.947 12.9308ZM209.633 25.9941V12.3564H207.633V25.9941H209.633ZM209.633 12.3564C209.633 12.2344 209.664 12.1684 209.735 12.0968L208.321 10.6825C207.866 11.1382 207.633 11.7167 207.633 12.3564H209.633ZM209.722 12.1095C209.809 12.0261 209.887 11.9941 210.01 11.9941V9.99414C209.371 9.99414 208.795 10.2259 208.334 10.6698L209.722 12.1095ZM210.01 11.9941H212.529V9.99414H210.01V11.9941ZM212.529 11.9941C212.651 11.9941 212.717 12.0251 212.789 12.0968L214.203 10.6825C213.748 10.2269 213.169 9.99414 212.529 9.99414V11.9941ZM212.802 12.1095C212.868 12.1736 212.906 12.2405 212.906 12.3857H214.906C214.906 11.7302 214.671 11.133 214.19 10.6698L212.802 12.1095ZM212.906 12.3857V30.623H214.906V12.3857H212.906ZM212.906 30.623C212.906 30.7342 212.878 30.8083 212.789 30.8974L214.203 32.3116C214.661 31.8539 214.906 31.2737 214.906 30.623H212.906ZM212.789 30.8974C212.717 30.9691 212.651 31 212.529 31V33C213.169 33 213.748 32.7673 214.203 32.3116L212.789 30.8974ZM212.529 31H207.666V33H212.529V31ZM207.666 31C207.526 31 207.323 30.9532 207.044 30.7693L205.944 32.4397C206.466 32.7831 207.045 33 207.666 33V31ZM207.058 30.7787C206.764 30.5777 206.548 30.3504 206.394 30.0989L204.69 31.1471C205.004 31.6575 205.424 32.0844 205.93 32.4303L207.058 30.7787ZM206.383 30.0813L198.282 17.5129L196.601 18.5964L204.701 31.1648L206.383 30.0813ZM196.441 18.0547V30.623H198.441V18.0547H196.441ZM196.441 30.623C196.441 30.7342 196.413 30.8083 196.324 30.8974L197.738 32.3116C198.196 31.8539 198.441 31.2737 198.441 30.623H196.441ZM196.324 30.8974C196.252 30.9691 196.186 31 196.064 31V33C196.704 33 197.283 32.7673 197.738 32.3116L196.324 30.8974ZM196.064 31H193.486V33H196.064V31ZM193.486 31C193.364 31 193.286 30.9681 193.199 30.8846L191.811 32.3243C192.271 32.7683 192.847 33 193.486 33V31ZM193.212 30.8974C193.123 30.8083 193.095 30.7342 193.095 30.623H191.095C191.095 31.2737 191.34 31.8539 191.798 32.3116L193.212 30.8974Z" fill="black" mask="url(#path-13-outside-7_367_1333)"/>
<mask id="path-15-outside-8_367_1333" maskUnits="userSpaceOnUse" x="226" y="9" width="22" height="24" fill="black">
<rect fill="white" x="226" y="9" width="22" height="24"/>
<path d="M227.095 30.5938V12.3564C227.095 11.9756 227.231 11.6533 227.505 11.3896C227.778 11.126 228.105 10.9941 228.486 10.9941H245.376C245.757 10.9941 246.079 11.1309 246.343 11.4043C246.616 11.6777 246.753 12.0049 246.753 12.3857V13.7627C246.753 14.1436 246.616 14.4707 246.343 14.7441C246.079 15.0078 245.757 15.1396 245.376 15.1396H232.617V19.4023H243.604C243.984 19.4023 244.307 19.5391 244.57 19.8125C244.844 20.0762 244.98 20.3984 244.98 20.7793V22.1562C244.98 22.5371 244.844 22.8643 244.57 23.1377C244.307 23.4014 243.984 23.5332 243.604 23.5332H232.617V27.8545H245.347C245.718 27.8545 246.035 27.9863 246.299 28.25C246.562 28.5137 246.694 28.8359 246.694 29.2168V30.623C246.694 31.0039 246.558 31.3311 246.284 31.6045C246.011 31.8682 245.684 32 245.303 32H228.486C228.105 32 227.778 31.8682 227.505 31.6045C227.231 31.3311 227.095 30.9941 227.095 30.5938Z"/>
</mask>
<path d="M227.095 30.5938V12.3564C227.095 11.9756 227.231 11.6533 227.505 11.3896C227.778 11.126 228.105 10.9941 228.486 10.9941H245.376C245.757 10.9941 246.079 11.1309 246.343 11.4043C246.616 11.6777 246.753 12.0049 246.753 12.3857V13.7627C246.753 14.1436 246.616 14.4707 246.343 14.7441C246.079 15.0078 245.757 15.1396 245.376 15.1396H232.617V19.4023H243.604C243.984 19.4023 244.307 19.5391 244.57 19.8125C244.844 20.0762 244.98 20.3984 244.98 20.7793V22.1562C244.98 22.5371 244.844 22.8643 244.57 23.1377C244.307 23.4014 243.984 23.5332 243.604 23.5332H232.617V27.8545H245.347C245.718 27.8545 246.035 27.9863 246.299 28.25C246.562 28.5137 246.694 28.8359 246.694 29.2168V30.623C246.694 31.0039 246.558 31.3311 246.284 31.6045C246.011 31.8682 245.684 32 245.303 32H228.486C228.105 32 227.778 31.8682 227.505 31.6045C227.231 31.3311 227.095 30.9941 227.095 30.5938Z" fill="#BDFF2E"/>
<path d="M246.343 11.4043L245.623 12.0984L245.629 12.105L245.636 12.1114L246.343 11.4043ZM232.617 15.1396V14.1396H231.617V15.1396H232.617ZM232.617 19.4023H231.617V20.4023H232.617V19.4023ZM244.57 19.8125L243.85 20.5066L243.863 20.5197L243.876 20.5323L244.57 19.8125ZM232.617 23.5332V22.5332H231.617V23.5332H232.617ZM232.617 27.8545H231.617V28.8545H232.617V27.8545ZM246.284 31.6045L246.978 32.3243L246.985 32.318L246.991 32.3116L246.284 31.6045ZM227.505 31.6045L226.798 32.3116L226.804 32.318L226.811 32.3243L227.505 31.6045ZM228.095 30.5938V12.3564H226.095V30.5938H228.095ZM228.095 12.3564C228.095 12.2463 228.122 12.1841 228.199 12.1095L226.811 10.6698C226.341 11.1225 226.095 11.7049 226.095 12.3564H228.095ZM228.199 12.1095C228.286 12.0261 228.364 11.9941 228.486 11.9941V9.99414C227.847 9.99414 227.271 10.2259 226.811 10.6698L228.199 12.1095ZM228.486 11.9941H245.376V9.99414H228.486V11.9941ZM245.376 11.9941C245.486 11.9941 245.548 12.021 245.623 12.0984L247.063 10.7102C246.61 10.2407 246.028 9.99414 245.376 9.99414V11.9941ZM245.636 12.1114C245.725 12.2005 245.753 12.2746 245.753 12.3857H247.753C247.753 11.7351 247.508 11.1549 247.05 10.6972L245.636 12.1114ZM245.753 12.3857V13.7627H247.753V12.3857H245.753ZM245.753 13.7627C245.753 13.8738 245.725 13.9479 245.636 14.037L247.05 15.4512C247.508 14.9935 247.753 14.4133 247.753 13.7627H245.753ZM245.636 14.037C245.564 14.1087 245.498 14.1396 245.376 14.1396V16.1396C246.016 16.1396 246.594 15.9069 247.05 15.4512L245.636 14.037ZM245.376 14.1396H232.617V16.1396H245.376V14.1396ZM231.617 15.1396V19.4023H233.617V15.1396H231.617ZM232.617 20.4023H243.604V18.4023H232.617V20.4023ZM243.604 20.4023C243.714 20.4023 243.776 20.4292 243.85 20.5066L245.29 19.1184C244.837 18.6489 244.255 18.4023 243.604 18.4023V20.4023ZM243.876 20.5323C243.954 20.607 243.98 20.6691 243.98 20.7793H245.98C245.98 20.1277 245.734 19.5454 245.264 19.0927L243.876 20.5323ZM243.98 20.7793V22.1562H245.98V20.7793H243.98ZM243.98 22.1562C243.98 22.2674 243.952 22.3415 243.863 22.4306L245.277 23.8448C245.735 23.3871 245.98 22.8069 245.98 22.1562H243.98ZM243.863 22.4306C243.792 22.5023 243.726 22.5332 243.604 22.5332V24.5332C244.243 24.5332 244.822 24.3005 245.277 23.8448L243.863 22.4306ZM243.604 22.5332H232.617V24.5332H243.604V22.5332ZM231.617 23.5332V27.8545H233.617V23.5332H231.617ZM232.617 28.8545H245.347V26.8545H232.617V28.8545ZM245.347 28.8545C245.451 28.8545 245.515 28.8799 245.592 28.9571L247.006 27.5429C246.556 27.0927 245.984 26.8545 245.347 26.8545V28.8545ZM245.592 28.9571C245.663 29.0288 245.694 29.0948 245.694 29.2168H247.694C247.694 28.5771 247.462 27.9985 247.006 27.5429L245.592 28.9571ZM245.694 29.2168V30.623H247.694V29.2168H245.694ZM245.694 30.623C245.694 30.7342 245.666 30.8083 245.577 30.8974L246.991 32.3116C247.449 31.8539 247.694 31.2737 247.694 30.623H245.694ZM245.59 30.8846C245.504 30.9681 245.425 31 245.303 31V33C245.942 33 246.518 32.7683 246.978 32.3243L245.59 30.8846ZM245.303 31H228.486V33H245.303V31ZM228.486 31C228.364 31 228.286 30.9681 228.199 30.8846L226.811 32.3243C227.271 32.7683 227.847 33 228.486 33V31ZM228.212 30.8974C228.133 30.8188 228.095 30.7394 228.095 30.5938H226.095C226.095 31.2489 226.33 31.8433 226.798 32.3116L228.212 30.8974Z" fill="black" mask="url(#path-15-outside-8_367_1333)"/>
<mask id="path-17-outside-9_367_1333" maskUnits="userSpaceOnUse" x="257" y="9" width="22" height="24" fill="black">
<rect fill="white" x="257" y="9" width="22" height="24"/>
<path d="M258.095 30.5938V12.3564C258.095 11.9756 258.231 11.6533 258.505 11.3896C258.778 11.126 259.105 10.9941 259.486 10.9941H276.376C276.757 10.9941 277.079 11.1309 277.343 11.4043C277.616 11.6777 277.753 12.0049 277.753 12.3857V13.7627C277.753 14.1436 277.616 14.4707 277.343 14.7441C277.079 15.0078 276.757 15.1396 276.376 15.1396H263.617V19.4023H274.604C274.984 19.4023 275.307 19.5391 275.57 19.8125C275.844 20.0762 275.98 20.3984 275.98 20.7793V22.1562C275.98 22.5371 275.844 22.8643 275.57 23.1377C275.307 23.4014 274.984 23.5332 274.604 23.5332H263.617V27.8545H276.347C276.718 27.8545 277.035 27.9863 277.299 28.25C277.562 28.5137 277.694 28.8359 277.694 29.2168V30.623C277.694 31.0039 277.558 31.3311 277.284 31.6045C277.011 31.8682 276.684 32 276.303 32H259.486C259.105 32 258.778 31.8682 258.505 31.6045C258.231 31.3311 258.095 30.9941 258.095 30.5938Z"/>
</mask>
<path d="M258.095 30.5938V12.3564C258.095 11.9756 258.231 11.6533 258.505 11.3896C258.778 11.126 259.105 10.9941 259.486 10.9941H276.376C276.757 10.9941 277.079 11.1309 277.343 11.4043C277.616 11.6777 277.753 12.0049 277.753 12.3857V13.7627C277.753 14.1436 277.616 14.4707 277.343 14.7441C277.079 15.0078 276.757 15.1396 276.376 15.1396H263.617V19.4023H274.604C274.984 19.4023 275.307 19.5391 275.57 19.8125C275.844 20.0762 275.98 20.3984 275.98 20.7793V22.1562C275.98 22.5371 275.844 22.8643 275.57 23.1377C275.307 23.4014 274.984 23.5332 274.604 23.5332H263.617V27.8545H276.347C276.718 27.8545 277.035 27.9863 277.299 28.25C277.562 28.5137 277.694 28.8359 277.694 29.2168V30.623C277.694 31.0039 277.558 31.3311 277.284 31.6045C277.011 31.8682 276.684 32 276.303 32H259.486C259.105 32 258.778 31.8682 258.505 31.6045C258.231 31.3311 258.095 30.9941 258.095 30.5938Z" fill="#BDFF2E"/>
<path d="M277.343 11.4043L276.623 12.0984L276.629 12.105L276.636 12.1114L277.343 11.4043ZM263.617 15.1396V14.1396H262.617V15.1396H263.617ZM263.617 19.4023H262.617V20.4023H263.617V19.4023ZM275.57 19.8125L274.85 20.5066L274.863 20.5197L274.876 20.5323L275.57 19.8125ZM263.617 23.5332V22.5332H262.617V23.5332H263.617ZM263.617 27.8545H262.617V28.8545H263.617V27.8545ZM277.284 31.6045L277.978 32.3243L277.985 32.318L277.991 32.3116L277.284 31.6045ZM258.505 31.6045L257.798 32.3116L257.804 32.318L257.811 32.3243L258.505 31.6045ZM259.095 30.5938V12.3564H257.095V30.5938H259.095ZM259.095 12.3564C259.095 12.2463 259.122 12.1841 259.199 12.1095L257.811 10.6698C257.341 11.1225 257.095 11.7049 257.095 12.3564H259.095ZM259.199 12.1095C259.286 12.0261 259.364 11.9941 259.486 11.9941V9.99414C258.847 9.99414 258.271 10.2259 257.811 10.6698L259.199 12.1095ZM259.486 11.9941H276.376V9.99414H259.486V11.9941ZM276.376 11.9941C276.486 11.9941 276.548 12.021 276.623 12.0984L278.063 10.7102C277.61 10.2407 277.028 9.99414 276.376 9.99414V11.9941ZM276.636 12.1114C276.725 12.2005 276.753 12.2746 276.753 12.3857H278.753C278.753 11.7351 278.508 11.1549 278.05 10.6972L276.636 12.1114ZM276.753 12.3857V13.7627H278.753V12.3857H276.753ZM276.753 13.7627C276.753 13.8738 276.725 13.9479 276.636 14.037L278.05 15.4512C278.508 14.9935 278.753 14.4133 278.753 13.7627H276.753ZM276.636 14.037C276.564 14.1087 276.498 14.1396 276.376 14.1396V16.1396C277.016 16.1396 277.594 15.9069 278.05 15.4512L276.636 14.037ZM276.376 14.1396H263.617V16.1396H276.376V14.1396ZM262.617 15.1396V19.4023H264.617V15.1396H262.617ZM263.617 20.4023H274.604V18.4023H263.617V20.4023ZM274.604 20.4023C274.714 20.4023 274.776 20.4292 274.85 20.5066L276.29 19.1184C275.837 18.6489 275.255 18.4023 274.604 18.4023V20.4023ZM274.876 20.5323C274.954 20.607 274.98 20.6691 274.98 20.7793H276.98C276.98 20.1277 276.734 19.5454 276.264 19.0927L274.876 20.5323ZM274.98 20.7793V22.1562H276.98V20.7793H274.98ZM274.98 22.1562C274.98 22.2674 274.952 22.3415 274.863 22.4306L276.277 23.8448C276.735 23.3871 276.98 22.8069 276.98 22.1562H274.98ZM274.863 22.4306C274.792 22.5023 274.726 22.5332 274.604 22.5332V24.5332C275.243 24.5332 275.822 24.3005 276.277 23.8448L274.863 22.4306ZM274.604 22.5332H263.617V24.5332H274.604V22.5332ZM262.617 23.5332V27.8545H264.617V23.5332H262.617ZM263.617 28.8545H276.347V26.8545H263.617V28.8545ZM276.347 28.8545C276.451 28.8545 276.515 28.8799 276.592 28.9571L278.006 27.5429C277.556 27.0927 276.984 26.8545 276.347 26.8545V28.8545ZM276.592 28.9571C276.663 29.0288 276.694 29.0948 276.694 29.2168H278.694C278.694 28.5771 278.462 27.9985 278.006 27.5429L276.592 28.9571ZM276.694 29.2168V30.623H278.694V29.2168H276.694ZM276.694 30.623C276.694 30.7342 276.666 30.8083 276.577 30.8974L277.991 32.3116C278.449 31.8539 278.694 31.2737 278.694 30.623H276.694ZM276.59 30.8846C276.504 30.9681 276.425 31 276.303 31V33C276.942 33 277.518 32.7683 277.978 32.3243L276.59 30.8846ZM276.303 31H259.486V33H276.303V31ZM259.486 31C259.364 31 259.286 30.9681 259.199 30.8846L257.811 32.3243C258.271 32.7683 258.847 33 259.486 33V31ZM259.212 30.8974C259.133 30.8188 259.095 30.7394 259.095 30.5938H257.095C257.095 31.2489 257.33 31.8433 257.798 32.3116L259.212 30.8974Z" fill="black" mask="url(#path-17-outside-9_367_1333)"/>
<mask id="path-19-outside-10_367_1333" maskUnits="userSpaceOnUse" x="286" y="9" width="25" height="25" fill="black">
<rect fill="white" x="286" y="9" width="25" height="25"/>
<path d="M287.894 26.624C287.894 26.0479 288.064 25.6377 288.406 25.3936C288.748 25.1396 289.08 25.0127 289.402 25.0127H291.146C292.024 25.0127 292.693 25.4912 293.152 26.4482C293.611 27.4053 294.642 27.8838 296.243 27.8838L301.37 27.9863C303.089 27.9863 303.948 27.4248 303.948 26.3018C303.948 25.4521 302.898 24.7832 300.799 24.2949C299.861 24.0703 298.826 23.8506 297.693 23.6357C296.561 23.4111 295.433 23.1328 294.31 22.8008C293.196 22.4688 292.171 22.0781 291.233 21.6289C290.296 21.1797 289.534 20.5645 288.948 19.7832C288.372 18.9922 288.084 18.0645 288.084 17C288.084 15.0371 288.782 13.5283 290.179 12.4736C291.575 11.4092 293.978 10.877 297.386 10.877L301.106 10.9648C303.108 10.9648 304.91 11.4824 306.512 12.5176C308.123 13.543 308.929 14.8271 308.929 16.3701C308.929 16.9463 308.758 17.3613 308.416 17.6152C308.074 17.8691 307.747 17.9961 307.435 17.9961H305.691C304.812 17.9961 304.144 17.5176 303.685 16.5605C303.226 15.5938 302.195 15.1104 300.594 15.1104L296.185 15.0225C294.466 15.0225 293.606 15.584 293.606 16.707C293.606 17.3223 294.148 17.8252 295.232 18.2158C296.326 18.6064 297.645 18.9531 299.188 19.2559C300.74 19.5488 302.298 19.9053 303.86 20.3252C305.423 20.7451 306.746 21.4385 307.83 22.4053C308.924 23.3623 309.471 24.5586 309.471 25.9941C309.471 27.957 308.768 29.4707 307.361 30.5352C305.965 31.5898 303.567 32.1172 300.169 32.1172L295.73 32.0293C293.729 32.0293 291.922 31.5166 290.311 30.4912C288.699 29.4561 287.894 28.167 287.894 26.624Z"/>
</mask>
<path d="M287.894 26.624C287.894 26.0479 288.064 25.6377 288.406 25.3936C288.748 25.1396 289.08 25.0127 289.402 25.0127H291.146C292.024 25.0127 292.693 25.4912 293.152 26.4482C293.611 27.4053 294.642 27.8838 296.243 27.8838L301.37 27.9863C303.089 27.9863 303.948 27.4248 303.948 26.3018C303.948 25.4521 302.898 24.7832 300.799 24.2949C299.861 24.0703 298.826 23.8506 297.693 23.6357C296.561 23.4111 295.433 23.1328 294.31 22.8008C293.196 22.4688 292.171 22.0781 291.233 21.6289C290.296 21.1797 289.534 20.5645 288.948 19.7832C288.372 18.9922 288.084 18.0645 288.084 17C288.084 15.0371 288.782 13.5283 290.179 12.4736C291.575 11.4092 293.978 10.877 297.386 10.877L301.106 10.9648C303.108 10.9648 304.91 11.4824 306.512 12.5176C308.123 13.543 308.929 14.8271 308.929 16.3701C308.929 16.9463 308.758 17.3613 308.416 17.6152C308.074 17.8691 307.747 17.9961 307.435 17.9961H305.691C304.812 17.9961 304.144 17.5176 303.685 16.5605C303.226 15.5938 302.195 15.1104 300.594 15.1104L296.185 15.0225C294.466 15.0225 293.606 15.584 293.606 16.707C293.606 17.3223 294.148 17.8252 295.232 18.2158C296.326 18.6064 297.645 18.9531 299.188 19.2559C300.74 19.5488 302.298 19.9053 303.86 20.3252C305.423 20.7451 306.746 21.4385 307.83 22.4053C308.924 23.3623 309.471 24.5586 309.471 25.9941C309.471 27.957 308.768 29.4707 307.361 30.5352C305.965 31.5898 303.567 32.1172 300.169 32.1172L295.73 32.0293C293.729 32.0293 291.922 31.5166 290.311 30.4912C288.699 29.4561 287.894 28.167 287.894 26.624Z" fill="#BDFF2E"/>
<path d="M288.406 25.3936L288.987 26.2073L288.995 26.2019L289.003 26.1963L288.406 25.3936ZM296.243 27.8838L296.263 26.884L296.253 26.8838H296.243V27.8838ZM301.37 27.9863L301.35 28.9861L301.36 28.9863H301.37V27.9863ZM300.799 24.2949L300.566 25.2674L300.572 25.2689L300.799 24.2949ZM297.693 23.6357L297.499 24.6167L297.507 24.6182L297.693 23.6357ZM294.31 22.8008L294.024 23.7591L294.026 23.7597L294.31 22.8008ZM288.948 19.7832L288.14 20.372L288.148 20.3832L288.948 19.7832ZM290.179 12.4736L290.781 13.2716L290.785 13.2689L290.179 12.4736ZM297.386 10.877L297.409 9.87723L297.398 9.87695H297.386V10.877ZM301.106 10.9648L301.083 11.9646L301.095 11.9648H301.106V10.9648ZM306.512 12.5176L305.969 13.3574L305.975 13.3612L306.512 12.5176ZM303.685 16.5605L302.781 16.9894L302.783 16.993L303.685 16.5605ZM300.594 15.1104L300.574 16.1102L300.584 16.1104H300.594V15.1104ZM296.185 15.0225L296.205 14.0227L296.195 14.0225H296.185V15.0225ZM295.232 18.2158L294.893 19.1566L294.896 19.1576L295.232 18.2158ZM299.188 19.2559L298.995 20.2372L299.002 20.2385L299.188 19.2559ZM307.83 22.4053L307.164 23.1516L307.172 23.1579L307.83 22.4053ZM307.361 30.5352L307.964 31.3331L307.965 31.3325L307.361 30.5352ZM300.169 32.1172L300.149 33.117L300.159 33.1172H300.169V32.1172ZM295.73 32.0293L295.75 31.0295L295.74 31.0293H295.73V32.0293ZM290.311 30.4912L289.77 31.3326L289.774 31.3349L290.311 30.4912ZM288.894 26.624C288.894 26.4306 288.923 26.3218 288.945 26.2689C288.963 26.2255 288.977 26.2146 288.987 26.2073L287.825 24.5798C287.13 25.0763 286.894 25.8549 286.894 26.624H288.894ZM289.003 26.1963C289.227 26.0295 289.355 26.0127 289.402 26.0127V24.0127C288.805 24.0127 288.269 24.2498 287.81 24.5908L289.003 26.1963ZM289.402 26.0127H291.146V24.0127H289.402V26.0127ZM291.146 26.0127C291.391 26.0127 291.572 26.0756 291.725 26.1849C291.888 26.3018 292.073 26.5111 292.251 26.8807L294.054 26.0158C293.772 25.4284 293.394 24.9199 292.888 24.5583C292.372 24.1891 291.778 24.0127 291.146 24.0127V26.0127ZM292.251 26.8807C292.954 28.3463 294.477 28.8838 296.243 28.8838V26.8838C294.807 26.8838 294.269 26.4642 294.054 26.0158L292.251 26.8807ZM296.223 28.8836L301.35 28.9861L301.39 26.9865L296.263 26.884L296.223 28.8836ZM301.37 28.9863C302.307 28.9863 303.182 28.8391 303.851 28.4023C304.593 27.9172 304.948 27.1633 304.948 26.3018H302.948C302.948 26.5633 302.874 26.6516 302.757 26.728C302.566 26.8527 302.152 26.9863 301.37 26.9863V28.9863ZM304.948 26.3018C304.948 25.3934 304.367 24.7455 303.698 24.3195C303.033 23.8954 302.117 23.5748 301.025 23.3209L300.572 25.2689C301.58 25.5033 302.239 25.7614 302.624 26.0062C302.81 26.1253 302.895 26.218 302.929 26.2671C302.944 26.2896 302.948 26.3011 302.948 26.3018C302.949 26.3025 302.948 26.3022 302.948 26.3013C302.948 26.3004 302.948 26.3004 302.948 26.3018H304.948ZM301.032 23.3224C300.076 23.0935 299.025 22.8705 297.88 22.6533L297.507 24.6182C298.627 24.8307 299.646 25.0471 300.566 25.2674L301.032 23.3224ZM297.888 22.6548C296.785 22.4363 295.687 22.1653 294.593 21.8418L294.026 23.7597C295.178 24.1003 296.336 24.386 297.499 24.6166L297.888 22.6548ZM294.595 21.8425C293.527 21.5237 292.551 21.1512 291.666 20.7271L290.801 22.5307C291.791 23.005 292.866 23.4138 294.024 23.7591L294.595 21.8425ZM291.666 20.7271C290.864 20.3428 290.231 19.8274 289.748 19.1832L288.148 20.3832C288.837 21.3015 289.728 22.0166 290.801 22.5307L291.666 20.7271ZM289.757 19.1944C289.316 18.5896 289.084 17.8724 289.084 17H287.084C287.084 18.2565 287.428 19.3947 288.14 20.372L289.757 19.1944ZM289.084 17C289.084 15.307 289.668 14.1124 290.781 13.2716L289.576 11.6756C287.896 12.9442 287.084 14.7673 287.084 17H289.084ZM290.785 13.2689C291.906 12.4143 294.021 11.877 297.386 11.877V9.87695C293.934 9.87695 291.244 10.4041 289.573 11.6783L290.785 13.2689ZM297.362 11.8767L301.083 11.9646L301.13 9.96512L297.409 9.87723L297.362 11.8767ZM301.106 11.9648C302.926 11.9648 304.537 12.4322 305.969 13.3574L307.055 11.6777C305.283 10.5327 303.291 9.96484 301.106 9.96484V11.9648ZM305.975 13.3612C307.376 14.2532 307.929 15.2529 307.929 16.3701H309.929C309.929 14.4014 308.87 12.8328 307.049 11.6739L305.975 13.3612ZM307.929 16.3701C307.929 16.7507 307.824 16.8092 307.82 16.8125L309.012 18.418C309.692 17.9135 309.929 17.1419 309.929 16.3701H307.929ZM307.82 16.8125C307.589 16.984 307.467 16.9961 307.435 16.9961V18.9961C308.028 18.9961 308.56 18.7543 309.012 18.418L307.82 16.8125ZM307.435 16.9961H305.691V18.9961H307.435V16.9961ZM305.691 16.9961C305.445 16.9961 305.265 16.9332 305.112 16.8239C304.949 16.707 304.763 16.4977 304.586 16.1281L302.783 16.993C303.065 17.5804 303.443 18.0889 303.949 18.4505C304.465 18.8197 305.058 18.9961 305.691 18.9961V16.9961ZM304.588 16.1317C303.887 14.6559 302.365 14.1104 300.594 14.1104V16.1104C302.025 16.1104 302.564 16.5316 302.781 16.9894L304.588 16.1317ZM300.614 14.1105L296.205 14.0227L296.165 16.0223L300.574 16.1102L300.614 14.1105ZM296.185 14.0225C295.248 14.0225 294.373 14.1696 293.704 14.6065C292.962 15.0916 292.606 15.8455 292.606 16.707H294.606C294.606 16.4455 294.681 16.3571 294.798 16.2807C294.989 16.156 295.402 16.0225 296.185 16.0225V14.0225ZM292.606 16.707C292.606 17.3483 292.902 17.8793 293.333 18.2787C293.742 18.6583 294.288 18.9384 294.893 19.1566L295.571 17.275C295.093 17.1026 294.826 16.936 294.693 16.8126C294.632 16.7557 294.612 16.7202 294.608 16.7112C294.605 16.706 294.606 16.7082 294.606 16.707H292.606ZM294.896 19.1576C296.05 19.5696 297.419 19.9279 298.995 20.2372L299.38 18.2746C297.87 17.9783 296.603 17.6433 295.569 17.2741L294.896 19.1576ZM299.002 20.2385C300.529 20.5267 302.062 20.8774 303.601 21.2909L304.12 19.3595C302.533 18.9331 300.951 18.571 299.373 18.2732L299.002 20.2385ZM303.601 21.2909C305.03 21.675 306.21 22.2999 307.164 23.1516L308.496 21.659C307.283 20.577 305.816 19.8152 304.12 19.3595L303.601 21.2909ZM307.172 23.1579C308.051 23.9277 308.471 24.851 308.471 25.9941H310.471C310.471 24.2662 309.796 22.7969 308.489 21.6527L307.172 23.1579ZM308.471 25.9941C308.471 27.6845 307.884 28.8856 306.758 29.7378L307.965 31.3325C309.652 30.0558 310.471 28.2296 310.471 25.9941H308.471ZM306.759 29.7372C305.636 30.5848 303.524 31.1172 300.169 31.1172V33.1172C303.611 33.1172 306.293 32.5949 307.964 31.3331L306.759 29.7372ZM300.189 31.1174L295.75 31.0295L295.711 33.0291L300.149 33.117L300.189 31.1174ZM295.73 31.0293C293.909 31.0293 292.29 30.5658 290.847 29.6475L289.774 31.3349C291.553 32.4674 293.548 33.0293 295.73 33.0293V31.0293ZM290.851 29.6499C289.447 28.7479 288.894 27.7423 288.894 26.624H286.894C286.894 28.5917 287.951 30.1642 289.77 31.3326L290.851 29.6499Z" fill="black" mask="url(#path-19-outside-10_367_1333)"/>
</svg>
