<svg width="24" height="30" viewBox="0 0 24 30" fill="none" xmlns="http://www.w3.org/2000/svg">
<path fill-rule="evenodd" clip-rule="evenodd" d="M0.75 29.0625V3.75C0.75 2.75544 1.14509 1.80161 1.84835 1.09835C2.55161 0.395088 3.50544 0 4.5 0L19.5 0C20.4946 0 21.4484 0.395088 22.1516 1.09835C22.8549 1.80161 23.25 2.75544 23.25 3.75V29.0625C23.2501 29.2253 23.2078 29.3853 23.1273 29.5268C23.0468 29.6683 22.9308 29.7864 22.7908 29.8695C22.6508 29.9525 22.4916 29.9977 22.3288 30.0005C22.166 30.0034 22.0053 29.9638 21.8625 29.8856L12 24.5044L2.1375 29.8856C1.99468 29.9638 1.83397 30.0034 1.6712 30.0005C1.50842 29.9977 1.34919 29.9525 1.20917 29.8695C1.06916 29.7864 0.953184 29.6683 0.872671 29.5268C0.792158 29.3853 0.749881 29.2253 0.75 29.0625ZM12.3 7.6875C12.2726 7.63127 12.2299 7.58388 12.1769 7.55073C12.1238 7.51758 12.0626 7.5 12 7.5C11.9374 7.5 11.8762 7.51758 11.8231 7.55073C11.7701 7.58388 11.7274 7.63127 11.7 7.6875L10.5112 10.0969C10.4875 10.1456 10.4521 10.1878 10.4084 10.2198C10.3646 10.2519 10.3137 10.2727 10.26 10.2806L7.5975 10.6669C7.53621 10.6762 7.47872 10.7024 7.43147 10.7425C7.38423 10.7826 7.3491 10.8352 7.33002 10.8941C7.31094 10.9531 7.30867 11.0163 7.32346 11.0765C7.33825 11.1367 7.36951 11.1916 7.41375 11.235L9.3375 13.1119C9.41625 13.1888 9.45187 13.2994 9.43313 13.4081L8.98125 16.0594C8.97106 16.1206 8.97814 16.1834 9.0017 16.2409C9.02525 16.2983 9.06435 16.348 9.1146 16.3844C9.16485 16.4208 9.22427 16.4425 9.28616 16.447C9.34806 16.4516 9.40999 16.4387 9.465 16.41L11.8463 15.1575C11.894 15.1325 11.9471 15.1195 12.0009 15.1195C12.0548 15.1195 12.1079 15.1325 12.1556 15.1575L14.5369 16.41C14.5918 16.4382 14.6535 16.4506 14.7151 16.4459C14.7767 16.4411 14.8358 16.4193 14.8857 16.383C14.9357 16.3466 14.9746 16.2971 14.998 16.24C15.0215 16.1829 15.0287 16.1203 15.0187 16.0594L14.565 13.4062C14.5554 13.353 14.559 13.2982 14.5753 13.2465C14.5916 13.1949 14.6203 13.1481 14.6588 13.11L16.5863 11.2331C16.6305 11.1897 16.6618 11.1348 16.6765 11.0746C16.6913 11.0144 16.6891 10.9513 16.67 10.8923C16.6509 10.8333 16.6158 10.7808 16.5685 10.7406C16.5213 10.7005 16.4638 10.6743 16.4025 10.665L13.74 10.2787C13.6863 10.2708 13.6354 10.25 13.5916 10.218C13.5479 10.1859 13.5125 10.1437 13.4887 10.095L12.3 7.6875Z" fill="#F7FC12"/>
</svg>
